<?xml version="1.0" encoding="utf-8"?>
<!-- Generator: Adobe Illustrator 21.1.0, SVG Export Plug-In . SVG Version: 6.00 Build 0)  -->
<svg version="1.1" id="Layer_1" xmlns="http://www.w3.org/2000/svg" xmlns:xlink="http://www.w3.org/1999/xlink" x="0px" y="0px"
	 viewBox="0 0 4940 716" style="enable-background:new 0 0 4940 716;" xml:space="preserve">
<style type="text/css">
	.st0{fill:none;stroke:#000000;stroke-miterlimit:10;}
</style>
<g>
	<line class="st0" x1="4939" y1="677.4" x2="4939" y2="786.5"/>
	<line class="st0" x1="4929.4" y1="677.4" x2="4929.4" y2="786.5"/>
	<line class="st0" x1="4919.9" y1="677.4" x2="4919.9" y2="786.5"/>
	<line class="st0" x1="4910.3" y1="677.4" x2="4910.3" y2="786.5"/>
	<line class="st0" x1="4900.7" y1="677.4" x2="4900.7" y2="786.5"/>
	<line class="st0" x1="4891.2" y1="677.4" x2="4891.2" y2="786.5"/>
	<line class="st0" x1="4881.6" y1="677.4" x2="4881.6" y2="786.5"/>
	<line class="st0" x1="4872" y1="677.4" x2="4872" y2="786.5"/>
	<line class="st0" x1="4862.5" y1="677.4" x2="4862.5" y2="786.5"/>
	<line class="st0" x1="4852.9" y1="677.4" x2="4852.9" y2="786.5"/>
	<line class="st0" x1="4843.3" y1="677.4" x2="4843.3" y2="786.5"/>
	<line class="st0" x1="4833.8" y1="677.4" x2="4833.8" y2="786.5"/>
	<line class="st0" x1="4824.2" y1="677.4" x2="4824.2" y2="786.5"/>
	<line class="st0" x1="4814.6" y1="677.4" x2="4814.6" y2="786.5"/>
	<line class="st0" x1="4805.1" y1="677.4" x2="4805.1" y2="786.5"/>
	<line class="st0" x1="4795.5" y1="677.4" x2="4795.5" y2="786.5"/>
	<line class="st0" x1="4785.9" y1="677.4" x2="4785.9" y2="786.5"/>
	<line class="st0" x1="4776.4" y1="677.4" x2="4776.4" y2="786.5"/>
	<line class="st0" x1="4766.8" y1="677.4" x2="4766.8" y2="786.5"/>
	<line class="st0" x1="4757.2" y1="677.4" x2="4757.2" y2="786.5"/>
	<line class="st0" x1="4747.7" y1="677.4" x2="4747.7" y2="786.5"/>
	<line class="st0" x1="4738.1" y1="677.4" x2="4738.1" y2="786.5"/>
	<line class="st0" x1="4728.5" y1="677.4" x2="4728.5" y2="786.5"/>
	<line class="st0" x1="4719" y1="677.4" x2="4719" y2="786.5"/>
	<line class="st0" x1="4709.4" y1="677.4" x2="4709.4" y2="786.5"/>
	<line class="st0" x1="4699.8" y1="677.4" x2="4699.8" y2="786.5"/>
	<line class="st0" x1="4690.3" y1="677.4" x2="4690.3" y2="786.5"/>
	<line class="st0" x1="4680.7" y1="677.4" x2="4680.7" y2="786.5"/>
	<line class="st0" x1="4671.1" y1="677.4" x2="4671.1" y2="786.5"/>
	<line class="st0" x1="4661.6" y1="646.8" x2="4661.6" y2="786.5"/>
	<line class="st0" x1="4652" y1="677.4" x2="4652" y2="786.5"/>
	<line class="st0" x1="4642.4" y1="677.4" x2="4642.4" y2="786.5"/>
	<line class="st0" x1="4632.9" y1="677.4" x2="4632.9" y2="786.5"/>
	<line class="st0" x1="4623.3" y1="677.4" x2="4623.3" y2="786.5"/>
	<line class="st0" x1="4613.7" y1="677.4" x2="4613.7" y2="786.5"/>
	<line class="st0" x1="4604.2" y1="677.4" x2="4604.2" y2="786.5"/>
	<line class="st0" x1="4594.6" y1="677.4" x2="4594.6" y2="786.5"/>
	<line class="st0" x1="4585" y1="677.4" x2="4585" y2="786.5"/>
	<line class="st0" x1="4575.5" y1="677.4" x2="4575.5" y2="786.5"/>
	<line class="st0" x1="4565.9" y1="677.4" x2="4565.9" y2="786.5"/>
	<line class="st0" x1="4556.3" y1="677.4" x2="4556.3" y2="786.5"/>
	<line class="st0" x1="4546.8" y1="677.4" x2="4546.8" y2="786.5"/>
	<line class="st0" x1="4537.2" y1="677.4" x2="4537.2" y2="786.5"/>
	<line class="st0" x1="4527.6" y1="677.4" x2="4527.6" y2="786.5"/>
	<line class="st0" x1="4518.1" y1="677.4" x2="4518.1" y2="786.5"/>
	<line class="st0" x1="4508.5" y1="677.4" x2="4508.5" y2="786.5"/>
	<line class="st0" x1="4498.9" y1="677.4" x2="4498.9" y2="786.5"/>
	<line class="st0" x1="4489.4" y1="677.4" x2="4489.4" y2="786.5"/>
	<line class="st0" x1="4479.8" y1="677.4" x2="4479.8" y2="786.5"/>
	<line class="st0" x1="4470.2" y1="677.4" x2="4470.2" y2="786.5"/>
	<line class="st0" x1="4460.7" y1="677.4" x2="4460.7" y2="786.5"/>
	<line class="st0" x1="4451.1" y1="677.4" x2="4451.1" y2="786.5"/>
	<line class="st0" x1="4441.5" y1="677.4" x2="4441.5" y2="786.5"/>
	<line class="st0" x1="4432" y1="677.4" x2="4432" y2="786.5"/>
	<line class="st0" x1="4422.4" y1="677.4" x2="4422.4" y2="786.5"/>
	<line class="st0" x1="4412.8" y1="677.4" x2="4412.8" y2="786.5"/>
	<line class="st0" x1="4403.3" y1="677.4" x2="4403.3" y2="786.5"/>
	<line class="st0" x1="4393.7" y1="677.4" x2="4393.7" y2="786.5"/>
	<line class="st0" x1="4384.1" y1="677.4" x2="4384.1" y2="786.5"/>
	<line class="st0" x1="4374.6" y1="646.8" x2="4374.6" y2="786.5"/>
	<line class="st0" x1="4365" y1="677.4" x2="4365" y2="786.5"/>
	<line class="st0" x1="4355.4" y1="677.4" x2="4355.4" y2="786.5"/>
	<line class="st0" x1="4345.9" y1="677.4" x2="4345.9" y2="786.5"/>
	<line class="st0" x1="4336.3" y1="677.4" x2="4336.3" y2="786.5"/>
	<line class="st0" x1="4326.7" y1="677.4" x2="4326.7" y2="786.5"/>
	<line class="st0" x1="4317.2" y1="677.4" x2="4317.2" y2="786.5"/>
	<line class="st0" x1="4307.6" y1="677.4" x2="4307.6" y2="786.5"/>
	<line class="st0" x1="4298" y1="677.4" x2="4298" y2="786.5"/>
	<line class="st0" x1="4288.5" y1="677.4" x2="4288.5" y2="786.5"/>
	<line class="st0" x1="4278.9" y1="677.4" x2="4278.9" y2="786.5"/>
	<line class="st0" x1="4269.3" y1="677.4" x2="4269.3" y2="786.5"/>
	<line class="st0" x1="4259.8" y1="677.4" x2="4259.8" y2="786.5"/>
	<line class="st0" x1="4250.2" y1="677.4" x2="4250.2" y2="786.5"/>
	<line class="st0" x1="4240.6" y1="677.4" x2="4240.6" y2="786.5"/>
	<line class="st0" x1="4231.1" y1="677.4" x2="4231.1" y2="786.5"/>
	<line class="st0" x1="4221.5" y1="677.4" x2="4221.5" y2="786.5"/>
	<line class="st0" x1="4211.9" y1="677.4" x2="4211.9" y2="786.5"/>
	<line class="st0" x1="4202.4" y1="677.4" x2="4202.4" y2="786.5"/>
	<line class="st0" x1="4192.8" y1="677.4" x2="4192.8" y2="786.5"/>
	<line class="st0" x1="4183.2" y1="677.4" x2="4183.2" y2="786.5"/>
	<line class="st0" x1="4173.7" y1="677.4" x2="4173.7" y2="786.5"/>
	<line class="st0" x1="4164.1" y1="677.4" x2="4164.1" y2="786.5"/>
	<line class="st0" x1="4154.5" y1="677.4" x2="4154.5" y2="786.5"/>
	<line class="st0" x1="4145" y1="677.4" x2="4145" y2="786.5"/>
	<line class="st0" x1="4135.4" y1="677.4" x2="4135.4" y2="786.5"/>
	<line class="st0" x1="4125.8" y1="677.4" x2="4125.8" y2="786.5"/>
	<line class="st0" x1="4116.3" y1="677.4" x2="4116.3" y2="786.5"/>
	<line class="st0" x1="4106.7" y1="677.4" x2="4106.7" y2="786.5"/>
	<line class="st0" x1="4097.1" y1="677.4" x2="4097.1" y2="786.5"/>
	<line class="st0" x1="4087.6" y1="677.4" x2="4087.6" y2="786.5"/>
	<line class="st0" x1="4078" y1="646.8" x2="4078" y2="786.5"/>
	<line class="st0" x1="4068.4" y1="677.4" x2="4068.4" y2="786.5"/>
	<line class="st0" x1="4058.9" y1="677.4" x2="4058.9" y2="786.5"/>
	<line class="st0" x1="4049.3" y1="677.4" x2="4049.3" y2="786.5"/>
	<line class="st0" x1="4039.7" y1="677.4" x2="4039.7" y2="786.5"/>
	<line class="st0" x1="4030.2" y1="677.4" x2="4030.2" y2="786.5"/>
	<line class="st0" x1="4020.6" y1="677.4" x2="4020.6" y2="786.5"/>
	<line class="st0" x1="4011" y1="677.4" x2="4011" y2="786.5"/>
	<line class="st0" x1="4001.5" y1="677.4" x2="4001.5" y2="786.5"/>
	<line class="st0" x1="3991.9" y1="677.4" x2="3991.9" y2="786.5"/>
	<line class="st0" x1="3982.3" y1="677.4" x2="3982.3" y2="786.5"/>
	<line class="st0" x1="3972.8" y1="677.4" x2="3972.8" y2="786.5"/>
	<line class="st0" x1="3963.2" y1="677.4" x2="3963.2" y2="786.5"/>
	<line class="st0" x1="3953.6" y1="677.4" x2="3953.6" y2="786.5"/>
	<line class="st0" x1="3944.1" y1="677.4" x2="3944.1" y2="786.5"/>
	<line class="st0" x1="3934.5" y1="677.4" x2="3934.5" y2="786.5"/>
	<line class="st0" x1="3924.9" y1="677.4" x2="3924.9" y2="786.5"/>
	<line class="st0" x1="3915.4" y1="677.4" x2="3915.4" y2="786.5"/>
	<line class="st0" x1="3905.8" y1="677.4" x2="3905.8" y2="786.5"/>
	<line class="st0" x1="3896.2" y1="677.4" x2="3896.2" y2="786.5"/>
	<line class="st0" x1="3886.7" y1="677.4" x2="3886.7" y2="786.5"/>
	<line class="st0" x1="3877.1" y1="677.4" x2="3877.1" y2="786.5"/>
	<line class="st0" x1="3867.5" y1="677.4" x2="3867.5" y2="786.5"/>
	<line class="st0" x1="3858" y1="677.4" x2="3858" y2="786.5"/>
	<line class="st0" x1="3848.4" y1="677.4" x2="3848.4" y2="786.5"/>
	<line class="st0" x1="3838.8" y1="677.4" x2="3838.8" y2="786.5"/>
	<line class="st0" x1="3829.3" y1="677.4" x2="3829.3" y2="786.5"/>
	<line class="st0" x1="3819.7" y1="677.4" x2="3819.7" y2="786.5"/>
	<line class="st0" x1="3810.1" y1="677.4" x2="3810.1" y2="786.5"/>
	<line class="st0" x1="3800.6" y1="677.4" x2="3800.6" y2="786.5"/>
	<line class="st0" x1="3791" y1="677.4" x2="3791" y2="786.5"/>
	<line class="st0" x1="3781.4" y1="646.8" x2="3781.4" y2="786.5"/>
	<line class="st0" x1="3771.9" y1="677.4" x2="3771.9" y2="786.5"/>
	<line class="st0" x1="3762.3" y1="677.4" x2="3762.3" y2="786.5"/>
	<line class="st0" x1="3752.7" y1="677.4" x2="3752.7" y2="786.5"/>
	<line class="st0" x1="3743.2" y1="677.4" x2="3743.2" y2="786.5"/>
	<line class="st0" x1="3733.6" y1="677.4" x2="3733.6" y2="786.5"/>
	<line class="st0" x1="3724" y1="677.4" x2="3724" y2="786.5"/>
	<line class="st0" x1="3714.5" y1="677.4" x2="3714.5" y2="786.5"/>
	<line class="st0" x1="3704.9" y1="677.4" x2="3704.9" y2="786.5"/>
	<line class="st0" x1="3695.3" y1="677.4" x2="3695.3" y2="786.5"/>
	<line class="st0" x1="3685.8" y1="677.4" x2="3685.8" y2="786.5"/>
	<line class="st0" x1="3676.2" y1="677.4" x2="3676.2" y2="786.5"/>
	<line class="st0" x1="3666.6" y1="677.4" x2="3666.6" y2="786.5"/>
	<line class="st0" x1="3657.1" y1="677.4" x2="3657.1" y2="786.5"/>
	<line class="st0" x1="3647.5" y1="677.4" x2="3647.5" y2="786.5"/>
	<line class="st0" x1="3637.9" y1="677.4" x2="3637.9" y2="786.5"/>
	<line class="st0" x1="3628.4" y1="677.4" x2="3628.4" y2="786.5"/>
	<line class="st0" x1="3618.8" y1="677.4" x2="3618.8" y2="786.5"/>
	<line class="st0" x1="3609.2" y1="677.4" x2="3609.2" y2="786.5"/>
	<line class="st0" x1="3599.7" y1="677.4" x2="3599.7" y2="786.5"/>
	<line class="st0" x1="3590.1" y1="677.4" x2="3590.1" y2="786.5"/>
	<line class="st0" x1="3580.5" y1="677.4" x2="3580.5" y2="786.5"/>
	<line class="st0" x1="3571" y1="677.4" x2="3571" y2="786.5"/>
	<line class="st0" x1="3561.4" y1="677.4" x2="3561.4" y2="786.5"/>
	<line class="st0" x1="3551.8" y1="677.4" x2="3551.8" y2="786.5"/>
	<line class="st0" x1="3542.3" y1="677.4" x2="3542.3" y2="786.5"/>
	<line class="st0" x1="3532.7" y1="677.4" x2="3532.7" y2="786.5"/>
	<line class="st0" x1="3523.1" y1="677.4" x2="3523.1" y2="786.5"/>
	<line class="st0" x1="3513.6" y1="677.4" x2="3513.6" y2="786.5"/>
	<line class="st0" x1="3504" y1="677.4" x2="3504" y2="786.5"/>
	<line class="st0" x1="3494.4" y1="646.8" x2="3494.4" y2="786.5"/>
	<line class="st0" x1="3484.9" y1="677.4" x2="3484.9" y2="786.5"/>
	<line class="st0" x1="3475.3" y1="677.4" x2="3475.3" y2="786.5"/>
	<line class="st0" x1="3465.7" y1="677.4" x2="3465.7" y2="786.5"/>
	<line class="st0" x1="3456.2" y1="677.4" x2="3456.2" y2="786.5"/>
	<line class="st0" x1="3446.6" y1="677.4" x2="3446.6" y2="786.5"/>
	<line class="st0" x1="3437" y1="677.4" x2="3437" y2="786.5"/>
	<line class="st0" x1="3427.5" y1="677.4" x2="3427.5" y2="786.5"/>
	<line class="st0" x1="3417.9" y1="677.4" x2="3417.9" y2="786.5"/>
	<line class="st0" x1="3408.3" y1="677.4" x2="3408.3" y2="786.5"/>
	<line class="st0" x1="3398.8" y1="677.4" x2="3398.8" y2="786.5"/>
	<line class="st0" x1="3389.2" y1="677.4" x2="3389.2" y2="786.5"/>
	<line class="st0" x1="3379.6" y1="677.4" x2="3379.6" y2="786.5"/>
	<line class="st0" x1="3370" y1="677.4" x2="3370" y2="786.5"/>
	<line class="st0" x1="3360.5" y1="677.4" x2="3360.5" y2="786.5"/>
	<line class="st0" x1="3350.9" y1="677.4" x2="3350.9" y2="786.5"/>
	<line class="st0" x1="3341.3" y1="677.4" x2="3341.3" y2="786.5"/>
	<line class="st0" x1="3331.8" y1="677.4" x2="3331.8" y2="786.5"/>
	<line class="st0" x1="3322.2" y1="677.4" x2="3322.2" y2="786.5"/>
	<line class="st0" x1="3312.6" y1="677.4" x2="3312.6" y2="786.5"/>
	<line class="st0" x1="3303.1" y1="677.4" x2="3303.1" y2="786.5"/>
	<line class="st0" x1="3293.5" y1="677.4" x2="3293.5" y2="786.5"/>
	<line class="st0" x1="3283.9" y1="677.4" x2="3283.9" y2="786.5"/>
	<line class="st0" x1="3274.4" y1="677.4" x2="3274.4" y2="786.5"/>
	<line class="st0" x1="3264.8" y1="677.4" x2="3264.8" y2="786.5"/>
	<line class="st0" x1="3255.2" y1="677.4" x2="3255.2" y2="786.5"/>
	<line class="st0" x1="3245.7" y1="677.4" x2="3245.7" y2="786.5"/>
	<line class="st0" x1="3236.1" y1="677.4" x2="3236.1" y2="786.5"/>
	<line class="st0" x1="3226.5" y1="677.4" x2="3226.5" y2="786.5"/>
	<line class="st0" x1="3217" y1="677.4" x2="3217" y2="786.5"/>
	<line class="st0" x1="3207.4" y1="677.4" x2="3207.4" y2="786.5"/>
	<line class="st0" x1="3197.8" y1="646.8" x2="3197.8" y2="786.5"/>
	<line class="st0" x1="3188.3" y1="677.4" x2="3188.3" y2="786.5"/>
	<line class="st0" x1="3178.7" y1="677.4" x2="3178.7" y2="786.5"/>
	<line class="st0" x1="3169.1" y1="677.4" x2="3169.1" y2="786.5"/>
	<line class="st0" x1="3159.6" y1="677.4" x2="3159.6" y2="786.5"/>
	<line class="st0" x1="3150" y1="677.4" x2="3150" y2="786.5"/>
	<line class="st0" x1="3140.4" y1="677.4" x2="3140.4" y2="786.5"/>
	<line class="st0" x1="3130.9" y1="677.4" x2="3130.9" y2="786.5"/>
	<line class="st0" x1="3121.3" y1="677.4" x2="3121.3" y2="786.5"/>
	<line class="st0" x1="3111.7" y1="677.4" x2="3111.7" y2="786.5"/>
	<line class="st0" x1="3102.2" y1="677.4" x2="3102.2" y2="786.5"/>
	<line class="st0" x1="3092.6" y1="677.4" x2="3092.6" y2="786.5"/>
	<line class="st0" x1="3083" y1="677.4" x2="3083" y2="786.5"/>
	<line class="st0" x1="3073.5" y1="677.4" x2="3073.5" y2="786.5"/>
	<line class="st0" x1="3063.9" y1="677.4" x2="3063.9" y2="786.5"/>
	<line class="st0" x1="3054.3" y1="677.4" x2="3054.3" y2="786.5"/>
	<line class="st0" x1="3044.8" y1="677.4" x2="3044.8" y2="786.5"/>
	<line class="st0" x1="3035.2" y1="677.4" x2="3035.2" y2="786.5"/>
	<line class="st0" x1="3025.6" y1="677.4" x2="3025.6" y2="786.5"/>
	<line class="st0" x1="3016.1" y1="677.4" x2="3016.1" y2="786.5"/>
	<line class="st0" x1="3006.5" y1="677.4" x2="3006.5" y2="786.5"/>
	<line class="st0" x1="2996.9" y1="677.4" x2="2996.9" y2="786.5"/>
	<line class="st0" x1="2987.4" y1="677.4" x2="2987.4" y2="786.5"/>
	<line class="st0" x1="2977.8" y1="677.4" x2="2977.8" y2="786.5"/>
	<line class="st0" x1="2968.2" y1="677.4" x2="2968.2" y2="786.5"/>
	<line class="st0" x1="2958.7" y1="677.4" x2="2958.7" y2="786.5"/>
	<line class="st0" x1="2949.1" y1="677.4" x2="2949.1" y2="786.5"/>
	<line class="st0" x1="2939.5" y1="677.4" x2="2939.5" y2="786.5"/>
	<line class="st0" x1="2930" y1="677.4" x2="2930" y2="786.5"/>
	<line class="st0" x1="2920.4" y1="677.4" x2="2920.4" y2="786.5"/>
	<line class="st0" x1="2910.8" y1="646.8" x2="2910.8" y2="786.5"/>
	<line class="st0" x1="2901.3" y1="677.4" x2="2901.3" y2="786.5"/>
	<line class="st0" x1="2891.7" y1="677.4" x2="2891.7" y2="786.5"/>
	<line class="st0" x1="2882.1" y1="677.4" x2="2882.1" y2="786.5"/>
	<line class="st0" x1="2872.6" y1="677.4" x2="2872.6" y2="786.5"/>
	<line class="st0" x1="2863" y1="677.4" x2="2863" y2="786.5"/>
	<line class="st0" x1="2853.4" y1="677.4" x2="2853.4" y2="786.5"/>
	<line class="st0" x1="2843.9" y1="677.4" x2="2843.9" y2="786.5"/>
	<line class="st0" x1="2834.3" y1="677.4" x2="2834.3" y2="786.5"/>
	<line class="st0" x1="2824.7" y1="677.4" x2="2824.7" y2="786.5"/>
	<line class="st0" x1="2815.2" y1="677.4" x2="2815.2" y2="786.5"/>
	<line class="st0" x1="2805.6" y1="677.4" x2="2805.6" y2="786.5"/>
	<line class="st0" x1="2796" y1="677.4" x2="2796" y2="786.5"/>
	<line class="st0" x1="2786.5" y1="677.4" x2="2786.5" y2="786.5"/>
	<line class="st0" x1="2776.9" y1="677.4" x2="2776.9" y2="786.5"/>
	<line class="st0" x1="2767.3" y1="677.4" x2="2767.3" y2="786.5"/>
	<line class="st0" x1="2757.8" y1="677.4" x2="2757.8" y2="786.5"/>
	<line class="st0" x1="2748.2" y1="677.4" x2="2748.2" y2="786.5"/>
	<line class="st0" x1="2738.6" y1="677.4" x2="2738.6" y2="786.5"/>
	<line class="st0" x1="2729.1" y1="677.4" x2="2729.1" y2="786.5"/>
	<line class="st0" x1="2719.5" y1="677.4" x2="2719.5" y2="786.5"/>
	<line class="st0" x1="2709.9" y1="677.4" x2="2709.9" y2="786.5"/>
	<line class="st0" x1="2700.4" y1="677.4" x2="2700.4" y2="786.5"/>
	<line class="st0" x1="2690.8" y1="677.4" x2="2690.8" y2="786.5"/>
	<line class="st0" x1="2681.2" y1="677.4" x2="2681.2" y2="786.5"/>
	<line class="st0" x1="2671.7" y1="677.4" x2="2671.7" y2="786.5"/>
	<line class="st0" x1="2662.1" y1="677.4" x2="2662.1" y2="786.5"/>
	<line class="st0" x1="2652.5" y1="677.4" x2="2652.5" y2="786.5"/>
	<line class="st0" x1="2643" y1="677.4" x2="2643" y2="786.5"/>
	<line class="st0" x1="2633.4" y1="677.4" x2="2633.4" y2="786.5"/>
	<line class="st0" x1="2623.8" y1="677.4" x2="2623.8" y2="786.5"/>
	<line class="st0" x1="2614.3" y1="646.8" x2="2614.3" y2="786.5"/>
	<line class="st0" x1="2604.7" y1="677.4" x2="2604.7" y2="786.5"/>
	<line class="st0" x1="2595.1" y1="677.4" x2="2595.1" y2="786.5"/>
	<line class="st0" x1="2585.6" y1="677.4" x2="2585.6" y2="786.5"/>
	<line class="st0" x1="2576" y1="677.4" x2="2576" y2="786.5"/>
	<line class="st0" x1="2566.4" y1="677.4" x2="2566.4" y2="786.5"/>
	<line class="st0" x1="2556.9" y1="677.4" x2="2556.9" y2="786.5"/>
	<line class="st0" x1="2547.3" y1="677.4" x2="2547.3" y2="786.5"/>
	<line class="st0" x1="2537.7" y1="677.4" x2="2537.7" y2="786.5"/>
	<line class="st0" x1="2528.2" y1="677.4" x2="2528.2" y2="786.5"/>
	<line class="st0" x1="2518.6" y1="677.4" x2="2518.6" y2="786.5"/>
	<line class="st0" x1="2509" y1="677.4" x2="2509" y2="786.5"/>
	<line class="st0" x1="2499.5" y1="677.4" x2="2499.5" y2="786.5"/>
	<line class="st0" x1="2489.9" y1="677.4" x2="2489.9" y2="786.5"/>
	<line class="st0" x1="2480.3" y1="677.4" x2="2480.3" y2="786.5"/>
	<line class="st0" x1="2470.8" y1="677.4" x2="2470.8" y2="786.5"/>
	<line class="st0" x1="2461.2" y1="677.4" x2="2461.2" y2="786.5"/>
	<line class="st0" x1="2451.6" y1="677.4" x2="2451.6" y2="786.5"/>
	<line class="st0" x1="2442.1" y1="677.4" x2="2442.1" y2="786.5"/>
	<line class="st0" x1="2432.5" y1="677.4" x2="2432.5" y2="786.5"/>
	<line class="st0" x1="2422.9" y1="677.4" x2="2422.9" y2="786.5"/>
	<line class="st0" x1="2413.4" y1="677.4" x2="2413.4" y2="786.5"/>
	<line class="st0" x1="2403.8" y1="677.4" x2="2403.8" y2="786.5"/>
	<line class="st0" x1="2394.2" y1="677.4" x2="2394.2" y2="786.5"/>
	<line class="st0" x1="2384.7" y1="677.4" x2="2384.7" y2="786.5"/>
	<line class="st0" x1="2375.1" y1="677.4" x2="2375.1" y2="786.5"/>
	<line class="st0" x1="2365.5" y1="677.4" x2="2365.5" y2="786.5"/>
	<line class="st0" x1="2356" y1="677.4" x2="2356" y2="786.5"/>
	<line class="st0" x1="2346.4" y1="646.8" x2="2346.4" y2="786.5"/>
	<line class="st0" x1="2336.8" y1="677.4" x2="2336.8" y2="786.5"/>
	<line class="st0" x1="2327.3" y1="677.4" x2="2327.3" y2="786.5"/>
	<line class="st0" x1="2317.7" y1="677.4" x2="2317.7" y2="786.5"/>
	<line class="st0" x1="2308.1" y1="677.4" x2="2308.1" y2="786.5"/>
	<line class="st0" x1="2298.6" y1="677.4" x2="2298.6" y2="786.5"/>
	<line class="st0" x1="2289" y1="677.4" x2="2289" y2="786.5"/>
	<line class="st0" x1="2279.4" y1="677.4" x2="2279.4" y2="786.5"/>
	<line class="st0" x1="2269.9" y1="677.4" x2="2269.9" y2="786.5"/>
	<line class="st0" x1="2260.3" y1="677.4" x2="2260.3" y2="786.5"/>
	<line class="st0" x1="2250.7" y1="677.4" x2="2250.7" y2="786.5"/>
	<line class="st0" x1="2241.2" y1="677.4" x2="2241.2" y2="786.5"/>
	<line class="st0" x1="2231.6" y1="677.4" x2="2231.6" y2="786.5"/>
	<line class="st0" x1="2222" y1="677.4" x2="2222" y2="786.5"/>
	<line class="st0" x1="2212.5" y1="677.4" x2="2212.5" y2="786.5"/>
	<line class="st0" x1="2202.9" y1="677.4" x2="2202.9" y2="786.5"/>
	<line class="st0" x1="2193.3" y1="677.4" x2="2193.3" y2="786.5"/>
	<line class="st0" x1="2183.8" y1="677.4" x2="2183.8" y2="786.5"/>
	<line class="st0" x1="2174.2" y1="677.4" x2="2174.2" y2="786.5"/>
	<line class="st0" x1="2164.6" y1="677.4" x2="2164.6" y2="786.5"/>
	<line class="st0" x1="2155.1" y1="677.4" x2="2155.1" y2="786.5"/>
	<line class="st0" x1="2145.5" y1="677.4" x2="2145.5" y2="786.5"/>
	<line class="st0" x1="2135.9" y1="677.4" x2="2135.9" y2="786.5"/>
	<line class="st0" x1="2126.4" y1="677.4" x2="2126.4" y2="786.5"/>
	<line class="st0" x1="2116.8" y1="677.4" x2="2116.8" y2="786.5"/>
	<line class="st0" x1="2107.2" y1="677.4" x2="2107.2" y2="786.5"/>
	<line class="st0" x1="2097.7" y1="677.4" x2="2097.7" y2="786.5"/>
	<line class="st0" x1="2088.1" y1="677.4" x2="2088.1" y2="786.5"/>
	<line class="st0" x1="2078.5" y1="677.4" x2="2078.5" y2="786.5"/>
	<line class="st0" x1="2069" y1="677.4" x2="2069" y2="786.5"/>
	<line class="st0" x1="2059.4" y1="677.4" x2="2059.4" y2="786.5"/>
	<line class="st0" x1="2049.8" y1="646.8" x2="2049.8" y2="786.5"/>
	<line class="st0" x1="2040.3" y1="677.4" x2="2040.3" y2="786.5"/>
	<line class="st0" x1="2030.7" y1="677.4" x2="2030.7" y2="786.5"/>
	<line class="st0" x1="2021.1" y1="677.4" x2="2021.1" y2="786.5"/>
	<line class="st0" x1="2011.6" y1="677.4" x2="2011.6" y2="786.5"/>
	<line class="st0" x1="2002" y1="677.4" x2="2002" y2="786.5"/>
	<line class="st0" x1="1992.4" y1="677.4" x2="1992.4" y2="786.5"/>
	<line class="st0" x1="1982.9" y1="677.4" x2="1982.9" y2="786.5"/>
	<line class="st0" x1="1973.3" y1="677.4" x2="1973.3" y2="786.5"/>
	<line class="st0" x1="1963.7" y1="677.4" x2="1963.7" y2="786.5"/>
	<line class="st0" x1="1954.2" y1="677.4" x2="1954.2" y2="786.5"/>
	<line class="st0" x1="1944.6" y1="677.4" x2="1944.6" y2="786.5"/>
	<line class="st0" x1="1935" y1="677.4" x2="1935" y2="786.5"/>
	<line class="st0" x1="1925.5" y1="677.4" x2="1925.5" y2="786.5"/>
	<line class="st0" x1="1915.9" y1="677.4" x2="1915.9" y2="786.5"/>
	<line class="st0" x1="1906.3" y1="677.4" x2="1906.3" y2="786.5"/>
	<line class="st0" x1="1896.8" y1="677.4" x2="1896.8" y2="786.5"/>
	<line class="st0" x1="1887.2" y1="677.4" x2="1887.2" y2="786.5"/>
	<line class="st0" x1="1877.6" y1="677.4" x2="1877.6" y2="786.5"/>
	<line class="st0" x1="1868.1" y1="677.4" x2="1868.1" y2="786.5"/>
	<line class="st0" x1="1858.5" y1="677.4" x2="1858.5" y2="786.5"/>
	<line class="st0" x1="1848.9" y1="677.4" x2="1848.9" y2="786.5"/>
	<line class="st0" x1="1839.4" y1="677.4" x2="1839.4" y2="786.5"/>
	<line class="st0" x1="1829.8" y1="677.4" x2="1829.8" y2="786.5"/>
	<line class="st0" x1="1820.2" y1="677.4" x2="1820.2" y2="786.5"/>
	<line class="st0" x1="1810.7" y1="677.4" x2="1810.7" y2="786.5"/>
	<line class="st0" x1="1801.1" y1="677.4" x2="1801.1" y2="786.5"/>
	<line class="st0" x1="1791.5" y1="677.4" x2="1791.5" y2="786.5"/>
	<line class="st0" x1="1782" y1="677.4" x2="1782" y2="786.5"/>
	<line class="st0" x1="1772.4" y1="677.4" x2="1772.4" y2="786.5"/>
	<line class="st0" x1="1762.8" y1="677.4" x2="1762.8" y2="786.5"/>
	<line class="st0" x1="1753.3" y1="646.8" x2="1753.3" y2="786.5"/>
	<line class="st0" x1="1743.7" y1="677.4" x2="1743.7" y2="786.5"/>
	<line class="st0" x1="1734.1" y1="677.4" x2="1734.1" y2="786.5"/>
	<line class="st0" x1="1724.6" y1="677.4" x2="1724.6" y2="786.5"/>
	<line class="st0" x1="1715" y1="677.4" x2="1715" y2="786.5"/>
	<line class="st0" x1="1705.4" y1="677.4" x2="1705.4" y2="786.5"/>
	<line class="st0" x1="1695.9" y1="677.4" x2="1695.9" y2="786.5"/>
	<line class="st0" x1="1686.3" y1="677.4" x2="1686.3" y2="786.5"/>
	<line class="st0" x1="1676.7" y1="677.4" x2="1676.7" y2="786.5"/>
	<line class="st0" x1="1667.2" y1="677.4" x2="1667.2" y2="786.5"/>
	<line class="st0" x1="1657.6" y1="677.4" x2="1657.6" y2="786.5"/>
	<line class="st0" x1="1648" y1="677.4" x2="1648" y2="786.5"/>
	<line class="st0" x1="1638.5" y1="677.4" x2="1638.5" y2="786.5"/>
	<line class="st0" x1="1628.9" y1="677.4" x2="1628.9" y2="786.5"/>
	<line class="st0" x1="1619.3" y1="677.4" x2="1619.3" y2="786.5"/>
	<line class="st0" x1="1609.8" y1="677.4" x2="1609.8" y2="786.5"/>
	<line class="st0" x1="1600.2" y1="677.4" x2="1600.2" y2="786.5"/>
	<line class="st0" x1="1590.6" y1="677.4" x2="1590.6" y2="786.5"/>
	<line class="st0" x1="1581.1" y1="677.4" x2="1581.1" y2="786.5"/>
	<line class="st0" x1="1571.5" y1="677.4" x2="1571.5" y2="786.5"/>
	<line class="st0" x1="1561.9" y1="677.4" x2="1561.9" y2="786.5"/>
	<line class="st0" x1="1552.4" y1="677.4" x2="1552.4" y2="786.5"/>
	<line class="st0" x1="1542.8" y1="677.4" x2="1542.8" y2="786.5"/>
	<line class="st0" x1="1533.2" y1="677.4" x2="1533.2" y2="786.5"/>
	<line class="st0" x1="1523.7" y1="677.4" x2="1523.7" y2="786.5"/>
	<line class="st0" x1="1514.1" y1="677.4" x2="1514.1" y2="786.5"/>
	<line class="st0" x1="1504.5" y1="677.4" x2="1504.5" y2="786.5"/>
	<line class="st0" x1="1495" y1="677.4" x2="1495" y2="786.5"/>
	<line class="st0" x1="1485.4" y1="677.4" x2="1485.4" y2="786.5"/>
	<line class="st0" x1="1475.8" y1="677.4" x2="1475.8" y2="786.5"/>
	<line class="st0" x1="1466.3" y1="646.8" x2="1466.3" y2="786.5"/>
	<line class="st0" x1="1456.7" y1="677.4" x2="1456.7" y2="786.5"/>
	<line class="st0" x1="1447.1" y1="677.4" x2="1447.1" y2="786.5"/>
	<line class="st0" x1="1437.6" y1="677.4" x2="1437.6" y2="786.5"/>
	<line class="st0" x1="1428" y1="677.4" x2="1428" y2="786.5"/>
	<line class="st0" x1="1418.4" y1="677.4" x2="1418.4" y2="786.5"/>
	<line class="st0" x1="1408.9" y1="677.4" x2="1408.9" y2="786.5"/>
	<line class="st0" x1="1399.3" y1="677.4" x2="1399.3" y2="786.5"/>
	<line class="st0" x1="1389.7" y1="677.4" x2="1389.7" y2="786.5"/>
	<line class="st0" x1="1380.2" y1="677.4" x2="1380.2" y2="786.5"/>
	<line class="st0" x1="1370.6" y1="677.4" x2="1370.6" y2="786.5"/>
	<line class="st0" x1="1361" y1="677.4" x2="1361" y2="786.5"/>
	<line class="st0" x1="1351.5" y1="677.4" x2="1351.5" y2="786.5"/>
	<line class="st0" x1="1341.9" y1="677.4" x2="1341.9" y2="786.5"/>
	<line class="st0" x1="1332.3" y1="677.4" x2="1332.3" y2="786.5"/>
	<line class="st0" x1="1322.8" y1="677.4" x2="1322.8" y2="786.5"/>
	<line class="st0" x1="1313.2" y1="677.4" x2="1313.2" y2="786.5"/>
	<line class="st0" x1="1303.6" y1="677.4" x2="1303.6" y2="786.5"/>
	<line class="st0" x1="1294.1" y1="677.4" x2="1294.1" y2="786.5"/>
	<line class="st0" x1="1284.5" y1="677.4" x2="1284.5" y2="786.5"/>
	<line class="st0" x1="1274.9" y1="677.4" x2="1274.9" y2="786.5"/>
	<line class="st0" x1="1265.4" y1="677.4" x2="1265.4" y2="786.5"/>
	<line class="st0" x1="1255.8" y1="677.4" x2="1255.8" y2="786.5"/>
	<line class="st0" x1="1246.2" y1="677.4" x2="1246.2" y2="786.5"/>
	<line class="st0" x1="1236.7" y1="677.4" x2="1236.7" y2="786.5"/>
	<line class="st0" x1="1227.1" y1="677.4" x2="1227.1" y2="786.5"/>
	<line class="st0" x1="1217.5" y1="677.4" x2="1217.5" y2="786.5"/>
	<line class="st0" x1="1208" y1="677.4" x2="1208" y2="786.5"/>
	<line class="st0" x1="1198.4" y1="677.4" x2="1198.4" y2="786.5"/>
	<line class="st0" x1="1188.8" y1="677.4" x2="1188.8" y2="786.5"/>
	<line class="st0" x1="1179.3" y1="677.4" x2="1179.3" y2="786.5"/>
	<line class="st0" x1="1169.7" y1="646.8" x2="1169.7" y2="786.5"/>
	<line class="st0" x1="1160.1" y1="677.4" x2="1160.1" y2="786.5"/>
	<line class="st0" x1="1150.6" y1="677.4" x2="1150.6" y2="786.5"/>
	<line class="st0" x1="1141" y1="677.4" x2="1141" y2="786.5"/>
	<line class="st0" x1="1131.4" y1="677.4" x2="1131.4" y2="786.5"/>
	<line class="st0" x1="1121.9" y1="677.4" x2="1121.9" y2="786.5"/>
	<line class="st0" x1="1112.3" y1="677.4" x2="1112.3" y2="786.5"/>
	<line class="st0" x1="1102.7" y1="677.4" x2="1102.7" y2="786.5"/>
	<line class="st0" x1="1093.2" y1="677.4" x2="1093.2" y2="786.5"/>
	<line class="st0" x1="1083.6" y1="677.4" x2="1083.6" y2="786.5"/>
	<line class="st0" x1="1074" y1="677.4" x2="1074" y2="786.5"/>
	<line class="st0" x1="1064.5" y1="677.4" x2="1064.5" y2="786.5"/>
	<line class="st0" x1="1054.9" y1="677.4" x2="1054.9" y2="786.5"/>
	<line class="st0" x1="1045.3" y1="677.4" x2="1045.3" y2="786.5"/>
	<line class="st0" x1="1035.8" y1="677.4" x2="1035.8" y2="786.5"/>
	<line class="st0" x1="1026.2" y1="677.4" x2="1026.2" y2="786.5"/>
	<line class="st0" x1="1016.6" y1="677.4" x2="1016.6" y2="786.5"/>
	<line class="st0" x1="1007.1" y1="677.4" x2="1007.1" y2="786.5"/>
	<line class="st0" x1="997.5" y1="677.4" x2="997.5" y2="786.5"/>
	<line class="st0" x1="987.9" y1="677.4" x2="987.9" y2="786.5"/>
	<line class="st0" x1="978.4" y1="677.4" x2="978.4" y2="786.5"/>
	<line class="st0" x1="968.8" y1="677.4" x2="968.8" y2="786.5"/>
	<line class="st0" x1="959.2" y1="677.4" x2="959.2" y2="786.5"/>
	<line class="st0" x1="949.7" y1="677.4" x2="949.7" y2="786.5"/>
	<line class="st0" x1="940.1" y1="677.4" x2="940.1" y2="786.5"/>
	<line class="st0" x1="930.5" y1="677.4" x2="930.5" y2="786.5"/>
	<line class="st0" x1="921" y1="677.4" x2="921" y2="786.5"/>
	<line class="st0" x1="911.4" y1="677.4" x2="911.4" y2="786.5"/>
	<line class="st0" x1="901.8" y1="677.4" x2="901.8" y2="786.5"/>
	<line class="st0" x1="892.3" y1="677.4" x2="892.3" y2="786.5"/>
	<line class="st0" x1="882.7" y1="646.8" x2="882.7" y2="786.5"/>
	<line class="st0" x1="873.1" y1="677.4" x2="873.1" y2="786.5"/>
	<line class="st0" x1="863.6" y1="677.4" x2="863.6" y2="786.5"/>
	<line class="st0" x1="854" y1="677.4" x2="854" y2="786.5"/>
	<line class="st0" x1="844.4" y1="677.4" x2="844.4" y2="786.5"/>
	<line class="st0" x1="834.9" y1="677.4" x2="834.9" y2="786.5"/>
	<line class="st0" x1="825.3" y1="677.4" x2="825.3" y2="786.5"/>
	<line class="st0" x1="815.7" y1="677.4" x2="815.7" y2="786.5"/>
	<line class="st0" x1="806.2" y1="677.4" x2="806.2" y2="786.5"/>
	<line class="st0" x1="796.6" y1="677.4" x2="796.6" y2="786.5"/>
	<line class="st0" x1="787" y1="677.4" x2="787" y2="786.5"/>
	<line class="st0" x1="777.5" y1="677.4" x2="777.5" y2="786.5"/>
	<line class="st0" x1="767.9" y1="677.4" x2="767.9" y2="786.5"/>
	<line class="st0" x1="758.3" y1="677.4" x2="758.3" y2="786.5"/>
	<line class="st0" x1="748.8" y1="677.4" x2="748.8" y2="786.5"/>
	<line class="st0" x1="739.2" y1="677.4" x2="739.2" y2="786.5"/>
	<line class="st0" x1="729.6" y1="677.4" x2="729.6" y2="786.5"/>
	<line class="st0" x1="720.1" y1="677.4" x2="720.1" y2="786.5"/>
	<line class="st0" x1="710.5" y1="677.4" x2="710.5" y2="786.5"/>
	<line class="st0" x1="700.9" y1="677.4" x2="700.9" y2="786.5"/>
	<line class="st0" x1="691.4" y1="677.4" x2="691.4" y2="786.5"/>
	<line class="st0" x1="681.8" y1="677.4" x2="681.8" y2="786.5"/>
	<line class="st0" x1="672.2" y1="677.4" x2="672.2" y2="786.5"/>
	<line class="st0" x1="662.7" y1="677.4" x2="662.7" y2="786.5"/>
	<line class="st0" x1="653.1" y1="677.4" x2="653.1" y2="786.5"/>
	<line class="st0" x1="643.5" y1="677.4" x2="643.5" y2="786.5"/>
	<line class="st0" x1="634" y1="677.4" x2="634" y2="786.5"/>
	<line class="st0" x1="624.4" y1="677.4" x2="624.4" y2="786.5"/>
	<line class="st0" x1="614.8" y1="677.4" x2="614.8" y2="786.5"/>
	<line class="st0" x1="605.3" y1="677.4" x2="605.3" y2="786.5"/>
	<line class="st0" x1="595.7" y1="677.4" x2="595.7" y2="786.5"/>
	<line class="st0" x1="586.1" y1="646.8" x2="586.1" y2="786.5"/>
	<line class="st0" x1="576.6" y1="677.4" x2="576.6" y2="786.5"/>
	<line class="st0" x1="567" y1="677.4" x2="567" y2="786.5"/>
	<line class="st0" x1="557.4" y1="677.4" x2="557.4" y2="786.5"/>
	<line class="st0" x1="547.9" y1="677.4" x2="547.9" y2="786.5"/>
	<line class="st0" x1="538.3" y1="677.4" x2="538.3" y2="786.5"/>
	<line class="st0" x1="528.7" y1="677.4" x2="528.7" y2="786.5"/>
	<line class="st0" x1="519.2" y1="677.4" x2="519.2" y2="786.5"/>
	<line class="st0" x1="509.6" y1="677.4" x2="509.6" y2="786.5"/>
	<line class="st0" x1="500" y1="677.4" x2="500" y2="786.5"/>
	<line class="st0" x1="490.5" y1="677.4" x2="490.5" y2="786.5"/>
	<line class="st0" x1="480.9" y1="677.4" x2="480.9" y2="786.5"/>
	<line class="st0" x1="471.3" y1="677.4" x2="471.3" y2="786.5"/>
	<line class="st0" x1="461.8" y1="677.4" x2="461.8" y2="786.5"/>
	<line class="st0" x1="452.2" y1="677.4" x2="452.2" y2="786.5"/>
	<line class="st0" x1="442.6" y1="677.4" x2="442.6" y2="786.5"/>
	<line class="st0" x1="433.1" y1="677.4" x2="433.1" y2="786.5"/>
	<line class="st0" x1="423.5" y1="677.4" x2="423.5" y2="786.5"/>
	<line class="st0" x1="413.9" y1="677.4" x2="413.9" y2="786.5"/>
	<line class="st0" x1="404.4" y1="677.4" x2="404.4" y2="786.5"/>
	<line class="st0" x1="394.8" y1="677.4" x2="394.8" y2="786.5"/>
	<line class="st0" x1="385.2" y1="677.4" x2="385.2" y2="786.5"/>
	<line class="st0" x1="375.7" y1="677.4" x2="375.7" y2="786.5"/>
	<line class="st0" x1="366.1" y1="677.4" x2="366.1" y2="786.5"/>
	<line class="st0" x1="356.5" y1="677.4" x2="356.5" y2="786.5"/>
	<line class="st0" x1="347" y1="677.4" x2="347" y2="786.5"/>
	<line class="st0" x1="337.4" y1="677.4" x2="337.4" y2="786.5"/>
	<line class="st0" x1="327.8" y1="677.4" x2="327.8" y2="786.5"/>
	<line class="st0" x1="318.3" y1="677.4" x2="318.3" y2="786.5"/>
	<line class="st0" x1="308.7" y1="677.4" x2="308.7" y2="786.5"/>
	<line class="st0" x1="299.1" y1="677.4" x2="299.1" y2="786.5"/>
	<line class="st0" x1="289.5" y1="646.8" x2="289.5" y2="786.5"/>
	<line class="st0" x1="280" y1="678.5" x2="280" y2="786.5"/>
	<line class="st0" x1="270.4" y1="678.5" x2="270.4" y2="786.5"/>
	<line class="st0" x1="260.8" y1="678.5" x2="260.8" y2="786.5"/>
	<line class="st0" x1="251.3" y1="678.5" x2="251.3" y2="786.5"/>
	<line class="st0" x1="241.7" y1="678.5" x2="241.7" y2="786.5"/>
	<line class="st0" x1="232.1" y1="678.5" x2="232.1" y2="786.5"/>
	<line class="st0" x1="222.6" y1="678.5" x2="222.6" y2="786.5"/>
	<line class="st0" x1="213" y1="678.5" x2="213" y2="786.5"/>
	<line class="st0" x1="203.4" y1="678.5" x2="203.4" y2="786.5"/>
	<line class="st0" x1="193.9" y1="678.5" x2="193.9" y2="786.5"/>
	<line class="st0" x1="184.3" y1="678.5" x2="184.3" y2="786.5"/>
	<line class="st0" x1="174.7" y1="678.5" x2="174.7" y2="786.5"/>
	<line class="st0" x1="165.2" y1="678.5" x2="165.2" y2="786.5"/>
	<line class="st0" x1="155.6" y1="678.5" x2="155.6" y2="786.5"/>
	<line class="st0" x1="146" y1="678.5" x2="146" y2="786.5"/>
	<line class="st0" x1="136.5" y1="678.5" x2="136.5" y2="786.5"/>
	<line class="st0" x1="126.9" y1="678.5" x2="126.9" y2="786.5"/>
	<line class="st0" x1="117.3" y1="678.5" x2="117.3" y2="786.5"/>
	<line class="st0" x1="107.8" y1="678.5" x2="107.8" y2="786.5"/>
	<line class="st0" x1="98.2" y1="678.5" x2="98.2" y2="786.5"/>
	<line class="st0" x1="88.6" y1="678.5" x2="88.6" y2="786.5"/>
	<line class="st0" x1="79.1" y1="678.5" x2="79.1" y2="786.5"/>
	<line class="st0" x1="69.5" y1="678.5" x2="69.5" y2="786.5"/>
	<line class="st0" x1="59.9" y1="678.5" x2="59.9" y2="786.5"/>
	<line class="st0" x1="50.4" y1="678.5" x2="50.4" y2="786.5"/>
	<line class="st0" x1="40.8" y1="678.5" x2="40.8" y2="786.5"/>
	<line class="st0" x1="31.2" y1="678.5" x2="31.2" y2="786.5"/>
	<line class="st0" x1="21.7" y1="678.5" x2="21.7" y2="786.5"/>
	<line class="st0" x1="12.1" y1="678.5" x2="12.1" y2="786.5"/>
	<line class="st0" x1="2.5" y1="647.8" x2="2.5" y2="786.5"/>
</g>
<g>
	<path d="M20.7,658.8c-0.1,0.4-0.3,0.8-0.6,1.1c-0.3,0.3-0.7,0.6-1.2,0.8c-0.5,0.2-1.1,0.3-1.8,0.3c-1.2,0-2.1-0.3-2.8-0.9
		s-1-1.6-1-2.8v-0.8h1.7v0.5c0,0.4,0,0.7,0.1,1c0.1,0.3,0.2,0.6,0.3,0.8c0.1,0.2,0.4,0.4,0.6,0.5s0.6,0.2,1,0.2
		c0.8,0,1.3-0.2,1.6-0.6c0.3-0.4,0.4-1,0.4-1.7v-9.4h1.7v9.6C20.9,657.9,20.9,658.4,20.7,658.8z"/>
	<path d="M29.8,660.7v-1.5h0c-0.3,0.6-0.7,1-1.2,1.3c-0.5,0.3-1.1,0.4-1.8,0.4c-0.6,0-1.1-0.1-1.5-0.2c-0.4-0.2-0.7-0.4-1-0.7
		c-0.3-0.3-0.4-0.7-0.5-1.1c-0.1-0.4-0.2-0.9-0.2-1.4v-6.1H25v6.3c0,0.6,0.2,1,0.5,1.4s0.8,0.5,1.4,0.5c0.5,0,0.9-0.1,1.2-0.2
		c0.3-0.1,0.6-0.3,0.9-0.6c0.2-0.3,0.4-0.6,0.5-0.9c0.1-0.4,0.2-0.7,0.2-1.2v-5.3h1.5v9.3H29.8z"/>
	<path d="M34.9,651.4v1.5h0c0.6-1.1,1.6-1.7,3-1.7c0.6,0,1.1,0.1,1.5,0.3c0.4,0.2,0.7,0.4,1,0.7c0.3,0.3,0.4,0.7,0.5,1.1
		c0.1,0.4,0.2,0.9,0.2,1.4v6.1h-1.5v-6.3c0-0.6-0.2-1-0.5-1.4s-0.8-0.5-1.4-0.5c-0.5,0-0.9,0.1-1.2,0.2c-0.3,0.1-0.6,0.3-0.9,0.6
		c-0.2,0.3-0.4,0.6-0.5,0.9c-0.1,0.4-0.2,0.7-0.2,1.2v5.3h-1.5v-9.3H34.9z"/>
	<path d="M50.1,660.1c-0.7,0.5-1.6,0.8-2.6,0.8c-0.7,0-1.4-0.1-1.9-0.4c-0.5-0.2-1-0.6-1.4-1s-0.7-0.9-0.8-1.5
		c-0.2-0.6-0.3-1.3-0.3-2c0-0.7,0.1-1.4,0.3-1.9c0.2-0.6,0.5-1.1,0.9-1.5c0.4-0.4,0.9-0.8,1.4-1c0.5-0.2,1.1-0.4,1.8-0.4
		c0.8,0,1.5,0.2,2.1,0.5c0.5,0.3,1,0.8,1.3,1.3c0.3,0.5,0.6,1.1,0.7,1.7s0.2,1.2,0.2,1.8h-7c0,0.4,0,0.8,0.1,1.2
		c0.1,0.4,0.3,0.7,0.5,1c0.2,0.3,0.5,0.5,0.9,0.7c0.4,0.2,0.8,0.3,1.3,0.3c0.6,0,1.2-0.2,1.6-0.5c0.4-0.3,0.7-0.8,0.8-1.4h1.5
		C51.2,658.8,50.8,659.6,50.1,660.1z M49.7,654.1c-0.1-0.3-0.3-0.6-0.6-0.8c-0.2-0.2-0.5-0.4-0.8-0.6s-0.7-0.2-1.1-0.2
		c-0.4,0-0.8,0.1-1.1,0.2s-0.6,0.3-0.8,0.6c-0.2,0.2-0.4,0.5-0.5,0.8c-0.1,0.3-0.2,0.7-0.2,1H50C49.9,654.8,49.9,654.5,49.7,654.1z"
		/>
</g>
<g>
	<path d="M305.7,658.8c-0.1,0.4-0.3,0.8-0.6,1.1c-0.3,0.3-0.7,0.6-1.2,0.8c-0.5,0.2-1.1,0.3-1.8,0.3c-1.2,0-2.1-0.3-2.8-0.9
		s-1-1.6-1-2.8v-0.8h1.7v0.5c0,0.4,0,0.7,0.1,1c0.1,0.3,0.2,0.6,0.3,0.8c0.1,0.2,0.4,0.4,0.6,0.5s0.6,0.2,1,0.2
		c0.8,0,1.3-0.2,1.6-0.6c0.3-0.4,0.4-1,0.4-1.7v-9.4h1.7v9.6C305.9,657.9,305.9,658.4,305.7,658.8z"/>
	<path d="M314.8,660.7v-1.5h0c-0.3,0.6-0.7,1-1.2,1.3c-0.5,0.3-1.1,0.4-1.8,0.4c-0.6,0-1.1-0.1-1.5-0.2c-0.4-0.2-0.7-0.4-1-0.7
		c-0.3-0.3-0.4-0.7-0.5-1.1c-0.1-0.4-0.2-0.9-0.2-1.4v-6.1h1.5v6.3c0,0.6,0.2,1,0.5,1.4s0.8,0.5,1.4,0.5c0.5,0,0.9-0.1,1.2-0.2
		c0.3-0.1,0.6-0.3,0.9-0.6c0.2-0.3,0.4-0.6,0.5-0.9c0.1-0.4,0.2-0.7,0.2-1.2v-5.3h1.5v9.3H314.8z"/>
	<path d="M320.1,647.9v12.9h-1.5v-12.9H320.1z"/>
	<path d="M326.2,662c-0.2,0.5-0.4,0.8-0.5,1.2c-0.2,0.3-0.4,0.6-0.6,0.8c-0.2,0.2-0.4,0.3-0.7,0.4c-0.3,0.1-0.6,0.1-0.9,0.1
		c-0.2,0-0.4,0-0.5,0c-0.2,0-0.4-0.1-0.5-0.1v-1.4c0.1,0.1,0.3,0.1,0.5,0.2c0.2,0,0.3,0.1,0.4,0.1c0.3,0,0.6-0.1,0.8-0.2
		c0.2-0.2,0.4-0.4,0.5-0.6l0.6-1.6l-3.7-9.3h1.7l2.7,7.6h0l2.6-7.6h1.6L326.2,662z"/>
</g>
<g>
	<path d="M601.8,647.9l5,12.9h-1.9l-1.4-3.9h-5.4l-1.4,3.9h-1.7l5-12.9H601.8z M603,655.4l-2.1-6h0l-2.2,6H603z"/>
	<path d="M614.1,660.7v-1.5h0c-0.3,0.6-0.7,1-1.2,1.3c-0.5,0.3-1.1,0.4-1.8,0.4c-0.6,0-1.1-0.1-1.5-0.2c-0.4-0.2-0.7-0.4-1-0.7
		c-0.3-0.3-0.4-0.7-0.5-1.1c-0.1-0.4-0.2-0.9-0.2-1.4v-6.1h1.5v6.3c0,0.6,0.2,1,0.5,1.4s0.8,0.5,1.4,0.5c0.5,0,0.9-0.1,1.2-0.2
		c0.3-0.1,0.6-0.3,0.9-0.6c0.2-0.3,0.4-0.6,0.5-0.9c0.1-0.4,0.2-0.7,0.2-1.2v-5.3h1.5v9.3H614.1z"/>
	<path d="M624.8,663.3c-0.7,0.8-1.8,1.1-3.3,1.1c-0.4,0-0.9,0-1.3-0.1c-0.5-0.1-0.9-0.3-1.2-0.5c-0.4-0.2-0.7-0.5-0.9-0.8
		c-0.2-0.3-0.4-0.8-0.4-1.3h1.5c0,0.3,0.1,0.5,0.3,0.7c0.2,0.2,0.4,0.3,0.6,0.5c0.2,0.1,0.5,0.2,0.8,0.3c0.3,0.1,0.5,0.1,0.8,0.1
		c0.5,0,0.9-0.1,1.3-0.3c0.3-0.2,0.6-0.4,0.9-0.7c0.2-0.3,0.4-0.7,0.5-1.1c0.1-0.4,0.2-0.9,0.2-1.4v-0.6h0c-0.3,0.6-0.7,1-1.2,1.3
		c-0.5,0.3-1.1,0.4-1.7,0.4c-0.7,0-1.3-0.1-1.8-0.4s-0.9-0.6-1.3-1s-0.6-0.9-0.8-1.5c-0.2-0.6-0.3-1.2-0.3-1.8
		c0-0.6,0.1-1.1,0.2-1.7c0.1-0.6,0.4-1.1,0.7-1.6c0.3-0.5,0.8-0.9,1.3-1.2c0.6-0.3,1.2-0.5,2-0.5c0.6,0,1.1,0.1,1.6,0.4
		s0.9,0.6,1.2,1.2h0v-1.3h1.4v8.5C625.9,661.4,625.5,662.6,624.8,663.3z M622.9,659.2c0.4-0.2,0.6-0.5,0.9-0.8
		c0.2-0.3,0.4-0.7,0.5-1.2c0.1-0.4,0.2-0.9,0.2-1.3c0-0.4,0-0.8-0.1-1.2c-0.1-0.4-0.2-0.8-0.5-1.1c-0.2-0.3-0.5-0.6-0.8-0.8
		c-0.3-0.2-0.7-0.3-1.2-0.3c-0.5,0-0.9,0.1-1.3,0.3c-0.3,0.2-0.6,0.4-0.9,0.7c-0.2,0.3-0.4,0.7-0.5,1.1c-0.1,0.4-0.2,0.8-0.2,1.3
		c0,0.4,0,0.8,0.1,1.3c0.1,0.4,0.2,0.8,0.4,1.1c0.2,0.3,0.5,0.6,0.8,0.8c0.3,0.2,0.8,0.3,1.3,0.3S622.5,659.4,622.9,659.2z"/>
</g>
<g>
	<path d="M901.8,649.6c-0.6-0.4-1.3-0.6-2.2-0.6c-0.4,0-0.7,0-1.1,0.1c-0.3,0.1-0.7,0.2-0.9,0.4s-0.5,0.4-0.6,0.7
		c-0.2,0.3-0.2,0.6-0.2,1.1c0,0.4,0.1,0.7,0.4,1s0.5,0.4,0.9,0.6c0.4,0.2,0.8,0.3,1.3,0.4c0.5,0.1,1,0.2,1.5,0.3
		c0.5,0.1,1,0.3,1.5,0.4c0.5,0.2,0.9,0.4,1.3,0.7c0.4,0.3,0.7,0.6,0.9,1c0.2,0.4,0.4,0.9,0.4,1.6c0,0.7-0.2,1.3-0.5,1.8
		c-0.3,0.5-0.7,0.9-1.2,1.2s-1,0.5-1.6,0.7c-0.6,0.1-1.2,0.2-1.8,0.2c-0.7,0-1.4-0.1-2-0.3c-0.6-0.2-1.2-0.5-1.7-0.8
		c-0.5-0.4-0.9-0.8-1.2-1.4c-0.3-0.6-0.4-1.2-0.4-2h1.6c0,0.5,0.1,1,0.3,1.4s0.5,0.7,0.8,1c0.3,0.3,0.7,0.4,1.2,0.6
		c0.5,0.1,0.9,0.2,1.4,0.2c0.4,0,0.8,0,1.2-0.1s0.7-0.2,1.1-0.4c0.3-0.2,0.6-0.4,0.8-0.7c0.2-0.3,0.3-0.7,0.3-1.2
		c0-0.4-0.1-0.8-0.4-1.1s-0.5-0.5-0.9-0.7c-0.4-0.2-0.8-0.3-1.3-0.4c-0.5-0.1-1-0.2-1.5-0.3c-0.5-0.1-1-0.2-1.5-0.4
		s-0.9-0.3-1.3-0.6c-0.4-0.2-0.7-0.6-0.9-1s-0.4-0.9-0.4-1.5c0-0.6,0.1-1.2,0.4-1.7c0.3-0.5,0.6-0.9,1.1-1.2
		c0.4-0.3,0.9-0.5,1.5-0.7c0.6-0.2,1.1-0.2,1.7-0.2c0.7,0,1.3,0.1,1.8,0.2c0.6,0.2,1.1,0.4,1.5,0.7s0.8,0.8,1,1.3
		c0.2,0.5,0.4,1.1,0.4,1.8h-1.6C902.7,650.7,902.4,650,901.8,649.6z"/>
	<path d="M913.4,660.1c-0.7,0.5-1.6,0.8-2.6,0.8c-0.7,0-1.4-0.1-1.9-0.4c-0.5-0.2-1-0.6-1.4-1s-0.7-0.9-0.8-1.5
		c-0.2-0.6-0.3-1.3-0.3-2c0-0.7,0.1-1.4,0.3-1.9c0.2-0.6,0.5-1.1,0.9-1.5c0.4-0.4,0.9-0.8,1.4-1c0.5-0.2,1.1-0.4,1.8-0.4
		c0.8,0,1.5,0.2,2.1,0.5c0.5,0.3,1,0.8,1.3,1.3c0.3,0.5,0.6,1.1,0.7,1.7s0.2,1.2,0.2,1.8h-7c0,0.4,0,0.8,0.1,1.2
		c0.1,0.4,0.3,0.7,0.5,1c0.2,0.3,0.5,0.5,0.9,0.7c0.4,0.2,0.8,0.3,1.3,0.3c0.6,0,1.2-0.2,1.6-0.5c0.4-0.3,0.7-0.8,0.8-1.4h1.5
		C914.5,658.8,914.1,659.6,913.4,660.1z M913,654.1c-0.1-0.3-0.3-0.6-0.6-0.8c-0.2-0.2-0.5-0.4-0.8-0.6s-0.7-0.2-1.1-0.2
		c-0.4,0-0.8,0.1-1.1,0.2s-0.6,0.3-0.8,0.6c-0.2,0.2-0.4,0.5-0.5,0.8c-0.1,0.3-0.2,0.7-0.2,1h5.3C913.3,654.8,913.2,654.5,913,654.1
		z"/>
	<path d="M918.1,651.4v1.3h0c0.3-0.5,0.6-0.9,1.2-1.1s1.1-0.4,1.8-0.4c0.7,0,1.3,0.1,1.9,0.4c0.5,0.3,1,0.6,1.3,1.1
		c0.4,0.4,0.6,1,0.8,1.6c0.2,0.6,0.3,1.2,0.3,1.9s-0.1,1.3-0.3,1.9c-0.2,0.6-0.4,1.1-0.8,1.5c-0.4,0.4-0.8,0.8-1.3,1
		c-0.5,0.3-1.2,0.4-1.9,0.4c-0.2,0-0.5,0-0.8-0.1c-0.3,0-0.6-0.1-0.8-0.2c-0.3-0.1-0.5-0.3-0.8-0.4c-0.2-0.2-0.5-0.4-0.6-0.7h0v4.8
		h-1.5v-12.9H918.1z M923.6,654.7c-0.1-0.4-0.3-0.8-0.5-1.1c-0.2-0.3-0.5-0.6-0.9-0.8c-0.4-0.2-0.8-0.3-1.3-0.3
		c-0.5,0-1,0.1-1.3,0.3s-0.7,0.5-0.9,0.8c-0.2,0.3-0.4,0.7-0.5,1.1c-0.1,0.4-0.2,0.8-0.2,1.3c0,0.5,0.1,0.9,0.2,1.3
		c0.1,0.4,0.3,0.8,0.5,1.1s0.5,0.6,0.9,0.8c0.4,0.2,0.8,0.3,1.4,0.3c0.5,0,1-0.1,1.3-0.3c0.4-0.2,0.6-0.5,0.9-0.8s0.4-0.7,0.5-1.2
		c0.1-0.4,0.1-0.9,0.1-1.3C923.7,655.5,923.7,655.1,923.6,654.7z"/>
</g>
<g>
	<path d="M1180.1,651.8c0.3-0.8,0.6-1.5,1.2-2.2c0.5-0.6,1.2-1.1,1.9-1.5c0.8-0.4,1.7-0.6,2.7-0.6s1.9,0.2,2.7,0.6s1.4,0.9,1.9,1.5
		c0.5,0.6,0.9,1.3,1.2,2.2c0.3,0.8,0.4,1.7,0.4,2.5s-0.1,1.7-0.4,2.5c-0.3,0.8-0.6,1.5-1.2,2.2c-0.5,0.6-1.2,1.1-1.9,1.5
		c-0.8,0.4-1.7,0.5-2.7,0.5s-1.9-0.2-2.7-0.5c-0.8-0.4-1.4-0.9-1.9-1.5s-0.9-1.3-1.2-2.2c-0.3-0.8-0.4-1.7-0.4-2.5
		S1179.8,652.6,1180.1,651.8z M1181.6,656.2c0.2,0.6,0.4,1.2,0.8,1.7s0.8,0.9,1.4,1.2c0.6,0.3,1.2,0.5,2,0.5s1.5-0.2,2-0.5
		c0.6-0.3,1-0.7,1.4-1.2c0.4-0.5,0.6-1.1,0.8-1.7c0.2-0.6,0.3-1.3,0.3-1.9c0-0.6-0.1-1.3-0.3-1.9c-0.2-0.6-0.4-1.2-0.8-1.7
		c-0.4-0.5-0.8-0.9-1.4-1.2c-0.6-0.3-1.2-0.5-2-0.5s-1.5,0.2-2,0.5c-0.6,0.3-1,0.7-1.4,1.2s-0.6,1.1-0.8,1.7s-0.3,1.3-0.3,1.9
		C1181.4,654.9,1181.5,655.6,1181.6,656.2z"/>
	<path d="M1199.4,653c-0.4-0.3-0.9-0.5-1.5-0.5c-0.6,0-1,0.1-1.4,0.3s-0.7,0.5-0.9,0.8c-0.2,0.3-0.4,0.7-0.5,1.2
		c-0.1,0.4-0.1,0.9-0.1,1.4c0,0.4,0.1,0.9,0.2,1.3c0.1,0.4,0.3,0.8,0.5,1.1c0.2,0.3,0.5,0.6,0.8,0.8c0.3,0.2,0.8,0.3,1.2,0.3
		c0.8,0,1.3-0.2,1.8-0.6c0.4-0.4,0.7-1,0.8-1.7h1.6c-0.2,1.2-0.6,2-1.3,2.7c-0.7,0.6-1.6,0.9-2.8,0.9c-0.7,0-1.3-0.1-1.9-0.3
		c-0.5-0.2-1-0.6-1.4-1s-0.6-0.9-0.8-1.5s-0.3-1.2-0.3-1.9c0-0.7,0.1-1.3,0.3-2c0.2-0.6,0.5-1.1,0.8-1.6s0.8-0.8,1.4-1.1
		c0.6-0.3,1.2-0.4,1.9-0.4c0.5,0,1,0.1,1.5,0.2s0.9,0.3,1.2,0.6s0.6,0.6,0.9,1c0.2,0.4,0.4,0.9,0.4,1.4h-1.6
		C1200,653.8,1199.8,653.3,1199.4,653z"/>
	<path d="M1207.5,651.4v1.3h-1.9v5.8c0,0.2,0,0.3,0,0.4c0,0.1,0.1,0.2,0.2,0.3c0.1,0.1,0.2,0.1,0.4,0.1s0.3,0,0.6,0h0.7v1.3h-1.2
		c-0.4,0-0.7,0-1-0.1s-0.5-0.2-0.7-0.3c-0.2-0.1-0.3-0.3-0.4-0.6c-0.1-0.3-0.1-0.6-0.1-1v-5.9h-1.6v-1.3h1.6v-2.8h1.5v2.8H1207.5z"
		/>
</g>
<g>
	<path d="M1478.2,647.9l6.8,10.4h0v-10.4h1.6v12.9h-1.9l-6.7-10.3h0v10.3h-1.6v-12.9H1478.2z"/>
	<path d="M1488.9,654.2c0.2-0.6,0.5-1.1,0.9-1.5c0.4-0.4,0.9-0.8,1.4-1c0.6-0.3,1.2-0.4,1.9-0.4c0.7,0,1.4,0.1,2,0.4
		c0.6,0.3,1,0.6,1.4,1c0.4,0.4,0.7,1,0.9,1.5c0.2,0.6,0.3,1.2,0.3,1.9c0,0.7-0.1,1.3-0.3,1.9c-0.2,0.6-0.5,1.1-0.9,1.5
		c-0.4,0.4-0.9,0.8-1.4,1c-0.6,0.2-1.2,0.4-2,0.4c-0.7,0-1.4-0.1-1.9-0.4c-0.6-0.2-1-0.6-1.4-1c-0.4-0.4-0.7-1-0.9-1.5
		c-0.2-0.6-0.3-1.2-0.3-1.9C1488.6,655.4,1488.7,654.7,1488.9,654.2z M1490.5,657.6c0.1,0.4,0.4,0.8,0.6,1.1
		c0.3,0.3,0.6,0.5,0.9,0.7c0.4,0.2,0.7,0.2,1.1,0.2s0.8-0.1,1.1-0.2c0.4-0.2,0.7-0.4,0.9-0.7c0.3-0.3,0.5-0.7,0.6-1.1
		c0.1-0.4,0.2-0.9,0.2-1.5c0-0.6-0.1-1.1-0.2-1.5c-0.1-0.4-0.4-0.8-0.6-1.1c-0.3-0.3-0.6-0.5-0.9-0.7c-0.4-0.2-0.7-0.2-1.1-0.2
		s-0.8,0.1-1.1,0.2c-0.4,0.2-0.7,0.4-0.9,0.7c-0.3,0.3-0.5,0.7-0.6,1.1c-0.2,0.4-0.2,0.9-0.2,1.5
		C1490.3,656.6,1490.3,657.1,1490.5,657.6z"/>
	<path d="M1502,660.7l-3.5-9.3h1.7l2.6,7.8h0l2.5-7.8h1.6l-3.4,9.3H1502z"/>
</g>
<g>
	<path d="M1768.8,647.9c2,0,3.5,0.5,4.6,1.5c1.1,1,1.6,2.5,1.6,4.6c0,1.1-0.1,2-0.4,2.9c-0.2,0.8-0.6,1.5-1.1,2.1
		c-0.5,0.6-1.1,1-1.9,1.3c-0.8,0.3-1.7,0.5-2.8,0.5h-4.4v-12.9H1768.8z M1769,659.3c0.2,0,0.4,0,0.7,0c0.3,0,0.6-0.1,0.9-0.2
		c0.3-0.1,0.6-0.3,1-0.5c0.3-0.2,0.6-0.5,0.9-0.9s0.5-0.8,0.6-1.4c0.2-0.6,0.2-1.2,0.2-2c0-0.8-0.1-1.5-0.2-2.1
		c-0.2-0.6-0.4-1.1-0.7-1.5c-0.3-0.4-0.8-0.7-1.3-1c-0.5-0.2-1.2-0.3-2-0.3h-2.9v10H1769z"/>
	<path d="M1783.4,660.1c-0.7,0.5-1.6,0.8-2.6,0.8c-0.7,0-1.4-0.1-1.9-0.4c-0.5-0.2-1-0.6-1.4-1s-0.7-0.9-0.8-1.5
		c-0.2-0.6-0.3-1.3-0.3-2c0-0.7,0.1-1.4,0.3-1.9c0.2-0.6,0.5-1.1,0.9-1.5c0.4-0.4,0.9-0.8,1.4-1c0.5-0.2,1.1-0.4,1.8-0.4
		c0.8,0,1.5,0.2,2.1,0.5c0.5,0.3,1,0.8,1.3,1.3c0.3,0.5,0.6,1.1,0.7,1.7s0.2,1.2,0.2,1.8h-7c0,0.4,0,0.8,0.1,1.2
		c0.1,0.4,0.3,0.7,0.5,1c0.2,0.3,0.5,0.5,0.9,0.7c0.4,0.2,0.8,0.3,1.3,0.3c0.6,0,1.2-0.2,1.6-0.5c0.4-0.3,0.7-0.8,0.8-1.4h1.5
		C1784.6,658.8,1784.1,659.6,1783.4,660.1z M1783,654.1c-0.1-0.3-0.3-0.6-0.6-0.8c-0.2-0.2-0.5-0.4-0.8-0.6s-0.7-0.2-1.1-0.2
		c-0.4,0-0.8,0.1-1.1,0.2s-0.6,0.3-0.8,0.6c-0.2,0.2-0.4,0.5-0.5,0.8c-0.1,0.3-0.2,0.7-0.2,1h5.3
		C1783.3,654.8,1783.2,654.5,1783,654.1z"/>
	<path d="M1792.1,653c-0.4-0.3-0.9-0.5-1.5-0.5c-0.6,0-1,0.1-1.4,0.3s-0.7,0.5-0.9,0.8c-0.2,0.3-0.4,0.7-0.5,1.2
		c-0.1,0.4-0.1,0.9-0.1,1.4c0,0.4,0.1,0.9,0.2,1.3c0.1,0.4,0.3,0.8,0.5,1.1c0.2,0.3,0.5,0.6,0.8,0.8c0.3,0.2,0.8,0.3,1.2,0.3
		c0.8,0,1.3-0.2,1.8-0.6c0.4-0.4,0.7-1,0.8-1.7h1.6c-0.2,1.2-0.6,2-1.3,2.7c-0.7,0.6-1.6,0.9-2.8,0.9c-0.7,0-1.3-0.1-1.9-0.3
		c-0.5-0.2-1-0.6-1.4-1s-0.6-0.9-0.8-1.5s-0.3-1.2-0.3-1.9c0-0.7,0.1-1.3,0.3-2c0.2-0.6,0.5-1.1,0.8-1.6s0.8-0.8,1.4-1.1
		c0.6-0.3,1.2-0.4,1.9-0.4c0.5,0,1,0.1,1.5,0.2s0.9,0.3,1.2,0.6s0.6,0.6,0.9,1c0.2,0.4,0.4,0.9,0.4,1.4h-1.6
		C1792.7,653.8,1792.4,653.3,1792.1,653z"/>
</g>
<g>
	<path d="M2066.7,658.8c-0.1,0.4-0.3,0.8-0.6,1.1c-0.3,0.3-0.7,0.6-1.2,0.8c-0.5,0.2-1.1,0.3-1.8,0.3c-1.2,0-2.1-0.3-2.8-0.9
		s-1-1.6-1-2.8v-0.8h1.7v0.5c0,0.4,0,0.7,0.1,1c0.1,0.3,0.2,0.6,0.3,0.8c0.1,0.2,0.4,0.4,0.6,0.5s0.6,0.2,1,0.2
		c0.8,0,1.3-0.2,1.6-0.6c0.3-0.4,0.4-1,0.4-1.7v-9.4h1.7v9.6C2066.9,657.9,2066.9,658.4,2066.7,658.8z"/>
	<path d="M2077.7,660.7c-0.3,0.2-0.6,0.2-1.1,0.2c-0.4,0-0.7-0.1-0.9-0.3s-0.4-0.6-0.4-1.1c-0.4,0.5-0.9,0.9-1.5,1.1
		c-0.6,0.2-1.2,0.3-1.8,0.3c-0.4,0-0.8,0-1.2-0.1c-0.4-0.1-0.7-0.2-1-0.5c-0.3-0.2-0.5-0.5-0.7-0.8s-0.2-0.7-0.2-1.2
		c0-0.5,0.1-1,0.3-1.3c0.2-0.3,0.4-0.6,0.7-0.8s0.6-0.4,1-0.5c0.4-0.1,0.8-0.2,1.2-0.3c0.4-0.1,0.8-0.1,1.2-0.2c0.4,0,0.7-0.1,1-0.2
		s0.5-0.2,0.7-0.3c0.2-0.2,0.3-0.4,0.3-0.7c0-0.3-0.1-0.6-0.2-0.8s-0.3-0.4-0.5-0.5c-0.2-0.1-0.4-0.2-0.7-0.2s-0.5-0.1-0.7-0.1
		c-0.6,0-1.2,0.1-1.6,0.4c-0.4,0.2-0.7,0.7-0.7,1.4h-1.5c0-0.6,0.1-1.1,0.4-1.5c0.2-0.4,0.5-0.7,0.9-1s0.8-0.4,1.2-0.5
		c0.5-0.1,1-0.2,1.5-0.2c0.4,0,0.8,0,1.3,0.1c0.4,0.1,0.8,0.2,1.1,0.4c0.3,0.2,0.6,0.4,0.8,0.8c0.2,0.3,0.3,0.8,0.3,1.3v4.8
		c0,0.4,0,0.6,0.1,0.8s0.2,0.3,0.4,0.3c0.1,0,0.3,0,0.5-0.1V660.7z M2075.3,655.9c-0.2,0.1-0.4,0.2-0.8,0.3c-0.3,0.1-0.6,0.1-1,0.2
		c-0.3,0-0.7,0.1-1,0.1c-0.3,0.1-0.7,0.1-0.9,0.3c-0.3,0.1-0.5,0.3-0.7,0.5c-0.2,0.2-0.3,0.5-0.3,0.9c0,0.3,0.1,0.5,0.2,0.6
		c0.1,0.2,0.2,0.3,0.4,0.4s0.4,0.2,0.6,0.2c0.2,0,0.4,0.1,0.7,0.1c0.5,0,0.9-0.1,1.3-0.2c0.4-0.1,0.7-0.3,0.9-0.5
		c0.2-0.2,0.4-0.4,0.5-0.7c0.1-0.2,0.2-0.5,0.2-0.7V655.9z"/>
	<path d="M2080.6,651.4v1.5h0c0.6-1.1,1.6-1.7,3-1.7c0.6,0,1.1,0.1,1.5,0.3c0.4,0.2,0.7,0.4,1,0.7c0.3,0.3,0.4,0.7,0.5,1.1
		c0.1,0.4,0.2,0.9,0.2,1.4v6.1h-1.5v-6.3c0-0.6-0.2-1-0.5-1.4s-0.8-0.5-1.4-0.5c-0.5,0-0.9,0.1-1.2,0.2c-0.3,0.1-0.6,0.3-0.9,0.6
		c-0.2,0.3-0.4,0.6-0.5,0.9c-0.1,0.4-0.2,0.7-0.2,1.2v5.3h-1.5v-9.3H2080.6z"/>
</g>
<g>
	<path d="M2363.8,647.9v1.4h-6.7v4.1h5.9v1.4h-5.9v5.9h-1.7v-12.9H2363.8z"/>
	<path d="M2372.1,660.1c-0.7,0.5-1.6,0.8-2.6,0.8c-0.7,0-1.4-0.1-1.9-0.4c-0.5-0.2-1-0.6-1.4-1s-0.7-0.9-0.8-1.5
		c-0.2-0.6-0.3-1.3-0.3-2c0-0.7,0.1-1.4,0.3-1.9c0.2-0.6,0.5-1.1,0.9-1.5c0.4-0.4,0.9-0.8,1.4-1c0.5-0.2,1.1-0.4,1.8-0.4
		c0.8,0,1.5,0.2,2.1,0.5c0.5,0.3,1,0.8,1.3,1.3c0.3,0.5,0.6,1.1,0.7,1.7s0.2,1.2,0.2,1.8h-7c0,0.4,0,0.8,0.1,1.2
		c0.1,0.4,0.3,0.7,0.5,1c0.2,0.3,0.5,0.5,0.9,0.7c0.4,0.2,0.8,0.3,1.3,0.3c0.6,0,1.2-0.2,1.6-0.5c0.4-0.3,0.7-0.8,0.8-1.4h1.5
		C2373.2,658.8,2372.8,659.6,2372.1,660.1z M2371.7,654.1c-0.1-0.3-0.3-0.6-0.6-0.8c-0.2-0.2-0.5-0.4-0.8-0.6s-0.7-0.2-1.1-0.2
		c-0.4,0-0.8,0.1-1.1,0.2s-0.6,0.3-0.8,0.6c-0.2,0.2-0.4,0.5-0.5,0.8c-0.1,0.3-0.2,0.7-0.2,1h5.3
		C2371.9,654.8,2371.8,654.5,2371.7,654.1z"/>
	<path d="M2376.7,647.9v4.8h0c0.3-0.5,0.6-0.9,1.2-1.1s1.1-0.4,1.8-0.4c0.7,0,1.3,0.1,1.9,0.4c0.5,0.3,1,0.6,1.3,1.1
		c0.4,0.4,0.6,1,0.8,1.6c0.2,0.6,0.3,1.2,0.3,1.9s-0.1,1.3-0.3,1.9c-0.2,0.6-0.4,1.1-0.8,1.5c-0.4,0.4-0.8,0.8-1.3,1
		c-0.5,0.3-1.2,0.4-1.9,0.4c-0.2,0-0.5,0-0.8-0.1c-0.3,0-0.6-0.1-0.8-0.2c-0.3-0.1-0.5-0.3-0.8-0.4c-0.2-0.2-0.5-0.4-0.6-0.7h0v1.2
		h-1.5v-12.9H2376.7z M2382.2,654.7c-0.1-0.4-0.3-0.8-0.5-1.1c-0.2-0.3-0.5-0.6-0.9-0.8c-0.4-0.2-0.8-0.3-1.3-0.3
		c-0.5,0-1,0.1-1.3,0.3s-0.7,0.5-0.9,0.8c-0.2,0.3-0.4,0.7-0.5,1.1c-0.1,0.4-0.2,0.8-0.2,1.3c0,0.5,0.1,0.9,0.2,1.3
		c0.1,0.4,0.3,0.8,0.5,1.1s0.5,0.6,0.9,0.8c0.4,0.2,0.8,0.3,1.4,0.3c0.5,0,1-0.1,1.3-0.3c0.4-0.2,0.6-0.5,0.9-0.8s0.4-0.7,0.5-1.2
		c0.1-0.4,0.1-0.9,0.1-1.3C2382.4,655.5,2382.3,655.1,2382.2,654.7z"/>
</g>
<g>
	<path d="M2625.8,647.9l4.1,10.8l4.1-10.8h2.3v12.9h-1.6V650h0l-4,10.7h-1.5l-4-10.7h0v10.7h-1.6v-12.9H2625.8z"/>
	<path d="M2647.1,660.7c-0.3,0.2-0.6,0.2-1.1,0.2c-0.4,0-0.7-0.1-0.9-0.3c-0.2-0.2-0.4-0.6-0.4-1.1c-0.4,0.5-0.9,0.9-1.5,1.1
		c-0.6,0.2-1.2,0.3-1.8,0.3c-0.4,0-0.8,0-1.2-0.1c-0.4-0.1-0.7-0.2-1-0.5c-0.3-0.2-0.5-0.5-0.7-0.8s-0.2-0.7-0.2-1.2
		c0-0.5,0.1-1,0.3-1.3c0.2-0.3,0.4-0.6,0.7-0.8s0.6-0.4,1-0.5c0.4-0.1,0.8-0.2,1.2-0.3c0.4-0.1,0.8-0.1,1.2-0.2c0.4,0,0.7-0.1,1-0.2
		s0.5-0.2,0.7-0.3s0.3-0.4,0.3-0.7c0-0.3-0.1-0.6-0.2-0.8s-0.3-0.4-0.5-0.5c-0.2-0.1-0.4-0.2-0.7-0.2s-0.5-0.1-0.7-0.1
		c-0.6,0-1.2,0.1-1.6,0.4s-0.7,0.7-0.7,1.4h-1.5c0-0.6,0.1-1.1,0.4-1.5c0.2-0.4,0.5-0.7,0.9-1c0.4-0.2,0.8-0.4,1.2-0.5
		c0.5-0.1,1-0.2,1.5-0.2c0.4,0,0.8,0,1.3,0.1c0.4,0.1,0.8,0.2,1.1,0.4s0.6,0.4,0.8,0.8c0.2,0.3,0.3,0.8,0.3,1.3v4.8
		c0,0.4,0,0.6,0.1,0.8s0.2,0.3,0.4,0.3c0.1,0,0.3,0,0.5-0.1V660.7z M2644.6,655.9c-0.2,0.1-0.4,0.2-0.8,0.3c-0.3,0.1-0.6,0.1-1,0.2
		c-0.3,0-0.7,0.1-1,0.1c-0.3,0.1-0.7,0.1-0.9,0.3c-0.3,0.1-0.5,0.3-0.7,0.5c-0.2,0.2-0.3,0.5-0.3,0.9c0,0.3,0.1,0.5,0.2,0.6
		c0.1,0.2,0.2,0.3,0.4,0.4s0.4,0.2,0.6,0.2s0.4,0.1,0.7,0.1c0.5,0,0.9-0.1,1.3-0.2c0.4-0.1,0.7-0.3,0.9-0.5c0.2-0.2,0.4-0.4,0.5-0.7
		c0.1-0.2,0.2-0.5,0.2-0.7V655.9z"/>
	<path d="M2649.9,651.4v2h0c0.4-0.8,0.8-1.3,1.4-1.7c0.5-0.4,1.2-0.5,2.1-0.5v1.6c-0.6,0-1.1,0.1-1.6,0.3c-0.4,0.2-0.8,0.4-1,0.7
		c-0.3,0.3-0.5,0.7-0.6,1.2c-0.1,0.5-0.2,1-0.2,1.6v4.1h-1.5v-9.3H2649.9z"/>
</g>
<g>
	<path d="M2925.8,647.9l5,12.9h-1.9l-1.4-3.9h-5.4l-1.4,3.9h-1.7l5-12.9H2925.8z M2927,655.4l-2.1-6h0l-2.2,6H2927z"/>
	<path d="M2933.4,651.4v1.3h0c0.3-0.5,0.6-0.9,1.2-1.1s1.1-0.4,1.8-0.4c0.7,0,1.3,0.1,1.9,0.4c0.5,0.3,1,0.6,1.3,1.1
		c0.4,0.4,0.6,1,0.8,1.6s0.3,1.2,0.3,1.9s-0.1,1.3-0.3,1.9c-0.2,0.6-0.4,1.1-0.8,1.5s-0.8,0.8-1.3,1c-0.5,0.3-1.2,0.4-1.9,0.4
		c-0.2,0-0.5,0-0.8-0.1c-0.3,0-0.6-0.1-0.8-0.2c-0.3-0.1-0.5-0.3-0.8-0.4c-0.2-0.2-0.5-0.4-0.6-0.7h0v4.8h-1.5v-12.9H2933.4z
		 M2938.9,654.7c-0.1-0.4-0.3-0.8-0.5-1.1c-0.2-0.3-0.5-0.6-0.9-0.8c-0.4-0.2-0.8-0.3-1.3-0.3c-0.5,0-1,0.1-1.3,0.3
		s-0.7,0.5-0.9,0.8c-0.2,0.3-0.4,0.7-0.5,1.1c-0.1,0.4-0.2,0.8-0.2,1.3c0,0.5,0.1,0.9,0.2,1.3c0.1,0.4,0.3,0.8,0.5,1.1
		c0.2,0.3,0.5,0.6,0.9,0.8c0.4,0.2,0.8,0.3,1.4,0.3s1-0.1,1.3-0.3c0.4-0.2,0.6-0.5,0.9-0.8s0.4-0.7,0.5-1.2c0.1-0.4,0.1-0.9,0.1-1.3
		C2939.1,655.5,2939,655.1,2938.9,654.7z"/>
	<path d="M2943.9,651.4v2h0c0.4-0.8,0.8-1.3,1.4-1.7c0.5-0.4,1.2-0.5,2.1-0.5v1.6c-0.6,0-1.1,0.1-1.6,0.3c-0.4,0.2-0.8,0.4-1,0.7
		c-0.3,0.3-0.5,0.7-0.6,1.2c-0.1,0.5-0.2,1-0.2,1.6v4.1h-1.5v-9.3H2943.9z"/>
</g>
<g>
	<path d="M3211.8,647.9l4.1,10.8l4.1-10.8h2.3v12.9h-1.6V650h0l-4,10.7h-1.5l-4-10.7h0v10.7h-1.6v-12.9H3211.8z"/>
	<path d="M3233.1,660.7c-0.3,0.2-0.6,0.2-1.1,0.2c-0.4,0-0.7-0.1-0.9-0.3c-0.2-0.2-0.4-0.6-0.4-1.1c-0.4,0.5-0.9,0.9-1.5,1.1
		c-0.6,0.2-1.2,0.3-1.8,0.3c-0.4,0-0.8,0-1.2-0.1c-0.4-0.1-0.7-0.2-1-0.5c-0.3-0.2-0.5-0.5-0.7-0.8s-0.2-0.7-0.2-1.2
		c0-0.5,0.1-1,0.3-1.3c0.2-0.3,0.4-0.6,0.7-0.8s0.6-0.4,1-0.5c0.4-0.1,0.8-0.2,1.2-0.3c0.4-0.1,0.8-0.1,1.2-0.2c0.4,0,0.7-0.1,1-0.2
		s0.5-0.2,0.7-0.3s0.3-0.4,0.3-0.7c0-0.3-0.1-0.6-0.2-0.8s-0.3-0.4-0.5-0.5c-0.2-0.1-0.4-0.2-0.7-0.2s-0.5-0.1-0.7-0.1
		c-0.6,0-1.2,0.1-1.6,0.4s-0.7,0.7-0.7,1.4h-1.5c0-0.6,0.1-1.1,0.4-1.5c0.2-0.4,0.5-0.7,0.9-1c0.4-0.2,0.8-0.4,1.2-0.5
		c0.5-0.1,1-0.2,1.5-0.2c0.4,0,0.8,0,1.3,0.1c0.4,0.1,0.8,0.2,1.1,0.4s0.6,0.4,0.8,0.8c0.2,0.3,0.3,0.8,0.3,1.3v4.8
		c0,0.4,0,0.6,0.1,0.8s0.2,0.3,0.4,0.3c0.1,0,0.3,0,0.5-0.1V660.7z M3230.6,655.9c-0.2,0.1-0.4,0.2-0.8,0.3c-0.3,0.1-0.6,0.1-1,0.2
		c-0.3,0-0.7,0.1-1,0.1c-0.3,0.1-0.7,0.1-0.9,0.3c-0.3,0.1-0.5,0.3-0.7,0.5c-0.2,0.2-0.3,0.5-0.3,0.9c0,0.3,0.1,0.5,0.2,0.6
		c0.1,0.2,0.2,0.3,0.4,0.4s0.4,0.2,0.6,0.2s0.4,0.1,0.7,0.1c0.5,0,0.9-0.1,1.3-0.2c0.4-0.1,0.7-0.3,0.9-0.5c0.2-0.2,0.4-0.4,0.5-0.7
		c0.1-0.2,0.2-0.5,0.2-0.7V655.9z"/>
	<path d="M3238.2,662c-0.2,0.5-0.4,0.8-0.5,1.2c-0.2,0.3-0.4,0.6-0.6,0.8c-0.2,0.2-0.4,0.3-0.7,0.4c-0.3,0.1-0.6,0.1-0.9,0.1
		c-0.2,0-0.4,0-0.5,0c-0.2,0-0.4-0.1-0.5-0.1v-1.4c0.1,0.1,0.3,0.1,0.5,0.2c0.2,0,0.3,0.1,0.4,0.1c0.3,0,0.6-0.1,0.8-0.2
		c0.2-0.2,0.4-0.4,0.5-0.6l0.6-1.6l-3.7-9.3h1.7l2.7,7.6h0l2.6-7.6h1.6L3238.2,662z"/>
</g>
<g>
	<path d="M3510.7,658.8c-0.1,0.4-0.3,0.8-0.6,1.1c-0.3,0.3-0.7,0.6-1.2,0.8s-1.1,0.3-1.8,0.3c-1.2,0-2.1-0.3-2.8-0.9s-1-1.6-1-2.8
		v-0.8h1.7v0.5c0,0.4,0,0.7,0.1,1c0.1,0.3,0.2,0.6,0.3,0.8c0.1,0.2,0.4,0.4,0.6,0.5c0.3,0.1,0.6,0.2,1,0.2c0.8,0,1.3-0.2,1.6-0.6
		c0.3-0.4,0.4-1,0.4-1.7v-9.4h1.7v9.6C3510.9,657.9,3510.9,658.4,3510.7,658.8z"/>
	<path d="M3519.8,660.7v-1.5h0c-0.3,0.6-0.7,1-1.2,1.3c-0.5,0.3-1.1,0.4-1.8,0.4c-0.6,0-1.1-0.1-1.5-0.2s-0.7-0.4-1-0.7
		c-0.3-0.3-0.4-0.7-0.5-1.1s-0.2-0.9-0.2-1.4v-6.1h1.5v6.3c0,0.6,0.2,1,0.5,1.4s0.8,0.5,1.4,0.5c0.5,0,0.9-0.1,1.2-0.2
		c0.3-0.1,0.6-0.3,0.9-0.6c0.2-0.3,0.4-0.6,0.5-0.9c0.1-0.4,0.2-0.7,0.2-1.2v-5.3h1.5v9.3H3519.8z"/>
	<path d="M3524.9,651.4v1.5h0c0.6-1.1,1.6-1.7,3-1.7c0.6,0,1.1,0.1,1.5,0.3c0.4,0.2,0.7,0.4,1,0.7c0.3,0.3,0.4,0.7,0.5,1.1
		s0.2,0.9,0.2,1.4v6.1h-1.5v-6.3c0-0.6-0.2-1-0.5-1.4s-0.8-0.5-1.4-0.5c-0.5,0-0.9,0.1-1.2,0.2c-0.3,0.1-0.6,0.3-0.9,0.6
		c-0.2,0.3-0.4,0.6-0.5,0.9c-0.1,0.4-0.2,0.7-0.2,1.2v5.3h-1.5v-9.3H3524.9z"/>
</g>
<g>
	<path d="M3797.7,658.8c-0.1,0.4-0.3,0.8-0.6,1.1c-0.3,0.3-0.7,0.6-1.2,0.8s-1.1,0.3-1.8,0.3c-1.2,0-2.1-0.3-2.8-0.9s-1-1.6-1-2.8
		v-0.8h1.7v0.5c0,0.4,0,0.7,0.1,1c0.1,0.3,0.2,0.6,0.3,0.8c0.1,0.2,0.4,0.4,0.6,0.5c0.3,0.1,0.6,0.2,1,0.2c0.8,0,1.3-0.2,1.6-0.6
		c0.3-0.4,0.4-1,0.4-1.7v-9.4h1.7v9.6C3797.9,657.9,3797.9,658.4,3797.7,658.8z"/>
	<path d="M3806.8,660.7v-1.5h0c-0.3,0.6-0.7,1-1.2,1.3c-0.5,0.3-1.1,0.4-1.8,0.4c-0.6,0-1.1-0.1-1.5-0.2s-0.7-0.4-1-0.7
		c-0.3-0.3-0.4-0.7-0.5-1.1s-0.2-0.9-0.2-1.4v-6.1h1.5v6.3c0,0.6,0.2,1,0.5,1.4s0.8,0.5,1.4,0.5c0.5,0,0.9-0.1,1.2-0.2
		c0.3-0.1,0.6-0.3,0.9-0.6c0.2-0.3,0.4-0.6,0.5-0.9c0.1-0.4,0.2-0.7,0.2-1.2v-5.3h1.5v9.3H3806.8z"/>
	<path d="M3812.1,647.9v12.9h-1.5v-12.9H3812.1z"/>
</g>
<g>
	<path d="M4095.8,647.9l5,12.9h-1.9l-1.4-3.9h-5.4l-1.4,3.9h-1.7l5-12.9H4095.8z M4097,655.4l-2.1-6h0l-2.2,6H4097z"/>
	<path d="M4108.1,660.7v-1.5h0c-0.3,0.6-0.7,1-1.2,1.3c-0.5,0.3-1.1,0.4-1.8,0.4c-0.6,0-1.1-0.1-1.5-0.2s-0.7-0.4-1-0.7
		c-0.3-0.3-0.4-0.7-0.5-1.1s-0.2-0.9-0.2-1.4v-6.1h1.5v6.3c0,0.6,0.2,1,0.5,1.4s0.8,0.5,1.4,0.5c0.5,0,0.9-0.1,1.2-0.2
		c0.3-0.1,0.6-0.3,0.9-0.6c0.2-0.3,0.4-0.6,0.5-0.9c0.1-0.4,0.2-0.7,0.2-1.2v-5.3h1.5v9.3H4108.1z"/>
	<path d="M4118.8,663.3c-0.7,0.8-1.8,1.1-3.3,1.1c-0.4,0-0.9,0-1.3-0.1c-0.5-0.1-0.9-0.3-1.2-0.5c-0.4-0.2-0.7-0.5-0.9-0.8
		c-0.2-0.3-0.4-0.8-0.4-1.3h1.5c0,0.3,0.1,0.5,0.3,0.7c0.2,0.2,0.4,0.3,0.6,0.5c0.2,0.1,0.5,0.2,0.8,0.3c0.3,0.1,0.5,0.1,0.8,0.1
		c0.5,0,0.9-0.1,1.3-0.3c0.3-0.2,0.6-0.4,0.9-0.7c0.2-0.3,0.4-0.7,0.5-1.1c0.1-0.4,0.2-0.9,0.2-1.4v-0.6h0c-0.3,0.6-0.7,1-1.2,1.3
		c-0.5,0.3-1.1,0.4-1.7,0.4c-0.7,0-1.3-0.1-1.8-0.4c-0.5-0.3-0.9-0.6-1.3-1c-0.3-0.4-0.6-0.9-0.8-1.5c-0.2-0.6-0.3-1.2-0.3-1.8
		c0-0.6,0.1-1.1,0.2-1.7c0.1-0.6,0.4-1.1,0.7-1.6c0.3-0.5,0.8-0.9,1.3-1.2c0.6-0.3,1.2-0.5,2-0.5c0.6,0,1.1,0.1,1.6,0.4
		s0.9,0.6,1.2,1.2h0v-1.3h1.4v8.5C4119.9,661.4,4119.5,662.6,4118.8,663.3z M4116.9,659.2c0.4-0.2,0.6-0.5,0.9-0.8s0.4-0.7,0.5-1.2
		c0.1-0.4,0.2-0.9,0.2-1.3c0-0.4,0-0.8-0.1-1.2c-0.1-0.4-0.2-0.8-0.5-1.1c-0.2-0.3-0.5-0.6-0.8-0.8c-0.3-0.2-0.7-0.3-1.2-0.3
		c-0.5,0-0.9,0.1-1.3,0.3c-0.3,0.2-0.6,0.4-0.9,0.7c-0.2,0.3-0.4,0.7-0.5,1.1c-0.1,0.4-0.2,0.8-0.2,1.3c0,0.4,0,0.8,0.1,1.3
		c0.1,0.4,0.2,0.8,0.4,1.1c0.2,0.3,0.5,0.6,0.8,0.8c0.3,0.2,0.8,0.3,1.3,0.3S4116.5,659.4,4116.9,659.2z"/>
</g>
<g>
	<path d="M4391.8,649.6c-0.6-0.4-1.3-0.6-2.2-0.6c-0.4,0-0.7,0-1.1,0.1c-0.3,0.1-0.7,0.2-0.9,0.4s-0.5,0.4-0.6,0.7
		c-0.2,0.3-0.2,0.6-0.2,1.1c0,0.4,0.1,0.7,0.4,1s0.5,0.4,0.9,0.6c0.4,0.2,0.8,0.3,1.3,0.4c0.5,0.1,1,0.2,1.5,0.3
		c0.5,0.1,1,0.3,1.5,0.4c0.5,0.2,0.9,0.4,1.3,0.7c0.4,0.3,0.7,0.6,0.9,1c0.2,0.4,0.4,0.9,0.4,1.6c0,0.7-0.2,1.3-0.5,1.8
		c-0.3,0.5-0.7,0.9-1.2,1.2c-0.5,0.3-1,0.5-1.6,0.7c-0.6,0.1-1.2,0.2-1.8,0.2c-0.7,0-1.4-0.1-2-0.3c-0.6-0.2-1.2-0.5-1.7-0.8
		c-0.5-0.4-0.9-0.8-1.2-1.4c-0.3-0.6-0.4-1.2-0.4-2h1.6c0,0.5,0.1,1,0.3,1.4c0.2,0.4,0.5,0.7,0.8,1c0.3,0.3,0.7,0.4,1.2,0.6
		c0.5,0.1,0.9,0.2,1.4,0.2c0.4,0,0.8,0,1.2-0.1c0.4-0.1,0.7-0.2,1.1-0.4c0.3-0.2,0.6-0.4,0.8-0.7c0.2-0.3,0.3-0.7,0.3-1.2
		c0-0.4-0.1-0.8-0.4-1.1c-0.2-0.3-0.5-0.5-0.9-0.7s-0.8-0.3-1.3-0.4c-0.5-0.1-1-0.2-1.5-0.3c-0.5-0.1-1-0.2-1.5-0.4
		s-0.9-0.3-1.3-0.6c-0.4-0.2-0.7-0.6-0.9-1s-0.4-0.9-0.4-1.5c0-0.6,0.1-1.2,0.4-1.7c0.3-0.5,0.6-0.9,1.1-1.2
		c0.4-0.3,0.9-0.5,1.5-0.7c0.6-0.2,1.1-0.2,1.7-0.2c0.7,0,1.3,0.1,1.8,0.2c0.6,0.2,1.1,0.4,1.5,0.7s0.8,0.8,1,1.3s0.4,1.1,0.4,1.8
		h-1.6C4392.7,650.7,4392.4,650,4391.8,649.6z"/>
	<path d="M4403.4,660.1c-0.7,0.5-1.6,0.8-2.6,0.8c-0.7,0-1.4-0.1-1.9-0.4s-1-0.6-1.4-1s-0.7-0.9-0.8-1.5c-0.2-0.6-0.3-1.3-0.3-2
		c0-0.7,0.1-1.4,0.3-1.9c0.2-0.6,0.5-1.1,0.9-1.5c0.4-0.4,0.9-0.8,1.4-1c0.5-0.2,1.1-0.4,1.8-0.4c0.8,0,1.5,0.2,2.1,0.5
		s1,0.8,1.3,1.3c0.3,0.5,0.6,1.1,0.7,1.7s0.2,1.2,0.2,1.8h-7c0,0.4,0,0.8,0.1,1.2c0.1,0.4,0.3,0.7,0.5,1c0.2,0.3,0.5,0.5,0.9,0.7
		c0.4,0.2,0.8,0.3,1.3,0.3c0.6,0,1.2-0.2,1.6-0.5c0.4-0.3,0.7-0.8,0.8-1.4h1.5C4404.5,658.8,4404.1,659.6,4403.4,660.1z M4403,654.1
		c-0.1-0.3-0.3-0.6-0.6-0.8c-0.2-0.2-0.5-0.4-0.8-0.6c-0.3-0.1-0.7-0.2-1.1-0.2c-0.4,0-0.8,0.1-1.1,0.2c-0.3,0.1-0.6,0.3-0.8,0.6
		c-0.2,0.2-0.4,0.5-0.5,0.8c-0.1,0.3-0.2,0.7-0.2,1h5.3C4403.3,654.8,4403.2,654.5,4403,654.1z"/>
	<path d="M4408.1,651.4v1.3h0c0.3-0.5,0.6-0.9,1.2-1.1c0.5-0.2,1.1-0.4,1.8-0.4c0.7,0,1.3,0.1,1.9,0.4c0.5,0.3,1,0.6,1.3,1.1
		c0.4,0.4,0.6,1,0.8,1.6s0.3,1.2,0.3,1.9s-0.1,1.3-0.3,1.9c-0.2,0.6-0.4,1.1-0.8,1.5s-0.8,0.8-1.3,1c-0.5,0.3-1.2,0.4-1.9,0.4
		c-0.2,0-0.5,0-0.8-0.1s-0.6-0.1-0.8-0.2c-0.3-0.1-0.5-0.3-0.8-0.4c-0.2-0.2-0.5-0.4-0.6-0.7h0v4.8h-1.5v-12.9H4408.1z
		 M4413.6,654.7c-0.1-0.4-0.3-0.8-0.5-1.1c-0.2-0.3-0.5-0.6-0.9-0.8c-0.4-0.2-0.8-0.3-1.3-0.3c-0.5,0-1,0.1-1.3,0.3
		c-0.4,0.2-0.7,0.5-0.9,0.8c-0.2,0.3-0.4,0.7-0.5,1.1c-0.1,0.4-0.2,0.8-0.2,1.3c0,0.5,0.1,0.9,0.2,1.3c0.1,0.4,0.3,0.8,0.5,1.1
		s0.5,0.6,0.9,0.8c0.4,0.2,0.8,0.3,1.3,0.3c0.5,0,1-0.1,1.3-0.3c0.4-0.2,0.6-0.5,0.9-0.8c0.2-0.3,0.4-0.7,0.5-1.2
		c0.1-0.4,0.1-0.9,0.1-1.3C4413.7,655.5,4413.7,655.1,4413.6,654.7z"/>
</g>
<g>
	<path d="M4674.2,647.9l6.8,10.4h0v-10.4h1.6v12.9h-1.9l-6.7-10.3h0v10.3h-1.6v-12.9H4674.2z"/>
	<path d="M4684.9,654.2c0.2-0.6,0.5-1.1,0.9-1.5c0.4-0.4,0.9-0.8,1.4-1c0.6-0.3,1.2-0.4,1.9-0.4c0.7,0,1.4,0.1,2,0.4
		c0.6,0.3,1,0.6,1.4,1c0.4,0.4,0.7,1,0.9,1.5c0.2,0.6,0.3,1.2,0.3,1.9c0,0.7-0.1,1.3-0.3,1.9c-0.2,0.6-0.5,1.1-0.9,1.5
		c-0.4,0.4-0.9,0.8-1.4,1c-0.6,0.2-1.2,0.4-2,0.4c-0.7,0-1.4-0.1-1.9-0.4c-0.6-0.2-1-0.6-1.4-1c-0.4-0.4-0.7-1-0.9-1.5
		c-0.2-0.6-0.3-1.2-0.3-1.9C4684.6,655.4,4684.7,654.7,4684.9,654.2z M4686.5,657.6c0.2,0.4,0.4,0.8,0.6,1.1s0.6,0.5,0.9,0.7
		c0.4,0.2,0.7,0.2,1.1,0.2c0.4,0,0.8-0.1,1.1-0.2c0.4-0.2,0.7-0.4,0.9-0.7c0.3-0.3,0.5-0.7,0.6-1.1c0.2-0.4,0.2-0.9,0.2-1.5
		c0-0.6-0.1-1.1-0.2-1.5c-0.1-0.4-0.4-0.8-0.6-1.1c-0.3-0.3-0.6-0.5-0.9-0.7c-0.4-0.2-0.7-0.2-1.1-0.2c-0.4,0-0.8,0.1-1.1,0.2
		c-0.4,0.2-0.7,0.4-0.9,0.7s-0.5,0.7-0.6,1.1c-0.2,0.4-0.2,0.9-0.2,1.5C4686.3,656.6,4686.3,657.1,4686.5,657.6z"/>
	<path d="M4698,660.7l-3.5-9.3h1.7l2.6,7.8h0l2.5-7.8h1.6l-3.4,9.3H4698z"/>
</g>
<g>
	<path d="M2050.9,613.9c0.2-0.6,0.5-1.2,0.9-1.6c0.4-0.5,0.9-0.8,1.4-1.1s1.3-0.4,2-0.4c0.6,0,1.1,0.1,1.6,0.3
		c0.5,0.2,1,0.4,1.4,0.8s0.7,0.8,0.9,1.2c0.2,0.5,0.4,1,0.4,1.7c0,0.6-0.1,1.2-0.3,1.6c-0.2,0.5-0.5,0.9-0.8,1.2
		c-0.3,0.4-0.7,0.7-1.1,1s-0.9,0.6-1.3,0.9c-0.4,0.3-0.9,0.6-1.3,0.9c-0.4,0.3-0.8,0.7-1.1,1.1h6v2.2h-9.3c0-0.7,0.1-1.4,0.3-1.9
		s0.5-1,0.9-1.4c0.4-0.4,0.8-0.8,1.3-1.2c0.5-0.4,1-0.7,1.5-1.1c0.3-0.2,0.6-0.4,0.9-0.6c0.3-0.2,0.6-0.4,0.9-0.7
		c0.3-0.2,0.5-0.5,0.6-0.8c0.2-0.3,0.3-0.6,0.3-1c0-0.6-0.2-1.1-0.5-1.4c-0.4-0.3-0.8-0.5-1.4-0.5c-0.4,0-0.7,0.1-0.9,0.3
		c-0.3,0.2-0.5,0.4-0.6,0.7s-0.3,0.6-0.3,0.9c-0.1,0.3-0.1,0.7-0.1,1h-2.4C2050.6,615.2,2050.7,614.6,2050.9,613.9z"/>
	<path d="M2060.8,614.3c0.2-0.8,0.6-1.5,1-2c0.4-0.5,0.9-0.9,1.5-1.1c0.6-0.2,1.1-0.3,1.8-0.3c0.6,0,1.2,0.1,1.8,0.3
		c0.6,0.2,1.1,0.6,1.5,1.1s0.8,1.2,1,2c0.2,0.8,0.4,1.9,0.4,3.1c0,1.3-0.1,2.3-0.4,3.2c-0.2,0.8-0.6,1.5-1,2s-0.9,0.9-1.5,1.1
		c-0.6,0.2-1.2,0.3-1.8,0.3c-0.6,0-1.2-0.1-1.8-0.3s-1-0.6-1.5-1.1c-0.4-0.5-0.8-1.2-1-2c-0.2-0.8-0.4-1.9-0.4-3.2
		C2060.4,616.1,2060.5,615.1,2060.8,614.3z M2063,618.7c0,0.5,0.1,1,0.2,1.5c0.1,0.5,0.3,0.9,0.6,1.2c0.3,0.3,0.7,0.5,1.2,0.5
		c0.5,0,0.9-0.2,1.2-0.5c0.3-0.3,0.5-0.7,0.6-1.2c0.1-0.5,0.2-1,0.2-1.5c0-0.5,0-0.9,0-1.3c0-0.2,0-0.5,0-0.8c0-0.3,0-0.6-0.1-0.9
		c0-0.3-0.1-0.6-0.2-1s-0.2-0.6-0.4-0.9c-0.2-0.3-0.4-0.5-0.6-0.6c-0.2-0.2-0.5-0.2-0.9-0.2s-0.6,0.1-0.9,0.2
		c-0.2,0.2-0.4,0.4-0.6,0.6c-0.2,0.3-0.3,0.5-0.4,0.9s-0.1,0.6-0.2,1c0,0.3-0.1,0.6-0.1,0.9c0,0.3,0,0.6,0,0.8
		C2062.9,617.7,2063,618.2,2063,618.7z"/>
	<path d="M2074.5,623.7v-8.2h-3.2v-1.9c0.4,0,0.9,0,1.3-0.1s0.8-0.2,1.1-0.4c0.3-0.2,0.6-0.5,0.8-0.8c0.2-0.3,0.4-0.7,0.5-1.2h2
		v12.6H2074.5z"/>
	<path d="M2083.6,621.6c0.3,0.3,0.7,0.5,1.1,0.5c0.5,0,0.9-0.1,1.2-0.4c0.3-0.3,0.5-0.6,0.7-1c0.2-0.4,0.3-0.8,0.4-1.3
		c0.1-0.4,0.1-0.8,0.2-1.2l0,0c-0.3,0.5-0.8,0.9-1.2,1.1c-0.5,0.2-1,0.3-1.6,0.3c-0.5,0-1.1-0.1-1.6-0.4c-0.5-0.2-1-0.5-1.3-0.9
		c-0.3-0.4-0.6-0.8-0.7-1.3s-0.2-1-0.2-1.5c0-0.6,0.1-1.3,0.3-1.8c0.2-0.6,0.5-1,0.9-1.5c0.4-0.4,0.9-0.7,1.4-1
		c0.5-0.2,1.1-0.4,1.8-0.4c1,0,1.7,0.2,2.4,0.6s1.1,0.9,1.5,1.5c0.4,0.6,0.6,1.3,0.8,2.1c0.1,0.8,0.2,1.6,0.2,2.4
		c0,0.8-0.1,1.6-0.3,2.3c-0.2,0.8-0.5,1.5-0.9,2.1s-0.9,1.1-1.5,1.5c-0.6,0.4-1.4,0.6-2.3,0.6c-0.5,0-1-0.1-1.5-0.2
		c-0.5-0.1-0.9-0.4-1.2-0.7c-0.4-0.3-0.7-0.7-0.9-1.1c-0.2-0.4-0.4-0.9-0.4-1.5h2.4C2083.1,620.9,2083.3,621.3,2083.6,621.6z
		 M2085.8,617.5c0.3-0.1,0.5-0.3,0.6-0.5c0.2-0.2,0.3-0.5,0.4-0.7s0.1-0.6,0.1-0.9c0-0.3,0-0.6-0.1-0.9c-0.1-0.3-0.2-0.5-0.4-0.8
		c-0.2-0.2-0.4-0.4-0.6-0.5s-0.5-0.2-0.9-0.2c-0.3,0-0.6,0.1-0.8,0.2s-0.4,0.3-0.6,0.5c-0.2,0.2-0.3,0.5-0.4,0.7
		c-0.1,0.3-0.1,0.6-0.1,0.8c0,0.3,0,0.6,0.1,0.9c0.1,0.3,0.2,0.5,0.4,0.8c0.2,0.2,0.4,0.4,0.6,0.5c0.2,0.1,0.5,0.2,0.9,0.2
		C2085.2,617.6,2085.5,617.6,2085.8,617.5z"/>
</g>
</svg>
