<?xml version="1.0" encoding="utf-8"?>
<!-- Generator: Adobe Illustrator 21.1.0, SVG Export Plug-In . SVG Version: 6.00 Build 0)  -->
<svg version="1.1" id="Layer_1" xmlns="http://www.w3.org/2000/svg" xmlns:xlink="http://www.w3.org/1999/xlink" x="0px" y="0px"
	 viewBox="0 0 5239 716" style="enable-background:new 0 0 5239 716;" xml:space="preserve">
<style type="text/css">
	.st0{font-family:'Helvetica-Bold';}
	.st1{font-size:86.631px;}
	.st2{fill:none;stroke:#FFFFFF;stroke-miterlimit:10;}
</style>
<text transform="matrix(0.5 -0.866 0.866 0.5 51.8159 603.4315)" class="st0 st1">Jun</text>
<text transform="matrix(0.5 -0.866 0.866 0.5 305.0274 603.4319)" class="st0 st1">Jul</text>
<text transform="matrix(0.5 -0.866 0.866 0.5 592.7969 603.4316)" class="st0 st1">Aug</text>
<text transform="matrix(0.5 -0.866 0.866 0.5 894.7188 603.4316)" class="st0 st1">Sep</text>
<text transform="matrix(0.5 -0.866 0.866 0.5 1185.8999 603.4319)" class="st0 st1">Oct</text>
<text transform="matrix(0.5 -0.866 0.866 0.5 1472.6533 603.4319)" class="st0 st1">Nov</text>
<text transform="matrix(0.5 -0.866 0.866 0.5 1751.6484 603.4316)" class="st0 st1">Dec</text>
<text transform="matrix(0.5 -0.866 0.866 0.5 2057.3057 603.4318)" class="st0 st1">Jan</text>
<text transform="matrix(0.5 -0.866 0.866 0.5 2353.9941 603.4319)" class="st0 st1">Feb</text>
<text transform="matrix(0.5 -0.866 0.866 0.5 2620.0684 603.4319)" class="st0 st1">Mar</text>
<text transform="matrix(0.5 -0.866 0.866 0.5 2912.5986 603.4319)" class="st0 st1">Apr</text>
<text transform="matrix(0.5 -0.866 0.866 0.5 3193.0083 603.4315)" class="st0 st1">May</text>
<text transform="matrix(0.5 -0.866 0.866 0.5 3483.5674 603.4321)" class="st0 st1">Jun</text>
<text transform="matrix(0.5 -0.866 0.866 0.5 3773.5078 603.4319)" class="st0 st1">Jul</text>
<text transform="matrix(0.5 -0.866 0.866 0.5 4080.6758 603.4319)" class="st0 st1">Aug</text>
<text transform="matrix(0.5 -0.866 0.866 0.5 4376.7812 603.4321)" class="st0 st1">Sep</text>
<text transform="matrix(0.5 -0.866 0.866 0.5 4673.0947 603.4318)" class="st0 st1">Oct</text>
<text transform="matrix(0.5 -0.866 0.866 0.5 4945.5264 603.4323)" class="st0 st1">Nov</text>
<line class="st2" x1="4661.6" y1="646.8" x2="4661.6" y2="786.5"/>
<line class="st2" x1="4374.6" y1="646.8" x2="4374.6" y2="786.5"/>
<line class="st2" x1="4078" y1="646.8" x2="4078" y2="786.5"/>
<line class="st2" x1="3781.4" y1="646.8" x2="3781.4" y2="786.5"/>
<line class="st2" x1="3494.4" y1="646.8" x2="3494.4" y2="786.5"/>
<line class="st2" x1="3197.8" y1="646.8" x2="3197.8" y2="786.5"/>
<line class="st2" x1="2910.8" y1="646.8" x2="2910.8" y2="786.5"/>
<line class="st2" x1="2614.3" y1="646.8" x2="2614.3" y2="786.5"/>
<line class="st2" x1="2346.4" y1="646.8" x2="2346.4" y2="786.5"/>
<line class="st2" x1="2049.8" y1="646.8" x2="2049.8" y2="786.5"/>
<line class="st2" x1="1753.3" y1="646.8" x2="1753.3" y2="786.5"/>
<line class="st2" x1="1466.3" y1="646.8" x2="1466.3" y2="786.5"/>
<line class="st2" x1="1169.7" y1="646.8" x2="1169.7" y2="786.5"/>
<line class="st2" x1="882.7" y1="646.8" x2="882.7" y2="786.5"/>
<line class="st2" x1="586.1" y1="646.8" x2="586.1" y2="786.5"/>
<line class="st2" x1="289.5" y1="646.8" x2="289.5" y2="786.5"/>
<line class="st2" x1="2.5" y1="647.8" x2="2.5" y2="786.5"/>
<line class="st2" x1="4959.6" y1="647.8" x2="4959.6" y2="787.5"/>
</svg>
